<svg width="74" height="201" viewBox="0 0 74 201" fill="none" xmlns="http://www.w3.org/2000/svg">
<path d="M67.5 161.5C56 165 25 164.5 6.5 161.5C2.43006 160.84 -7.00001 195.917 38.5 196.5C77.5 197 73.3389 159.723 67.5 161.5Z" fill="#C003F0" stroke="#7F009F" stroke-width="4" stroke-linecap="round" stroke-linejoin="round"/>
<path d="M67.5 160C67.5 161.105 53.897 162 36.5 162C19.103 162 6 161.105 6 160C6 158.895 19.103 158 36.5 158C53.897 158 67.5 158.895 67.5 160Z" fill="#7F009F"/>
<path d="M22 125.5C24.4839 103.641 21.0385 81.2253 22 81.5C32 84.3571 42 84.8335 52 81.5C53 81.1667 49.3993 103.655 52 125.5C54.6786 148 72 150.5 72 173.5C72 193.5 59 198.5 37 198.5C17 198.5 2 193.5 2 173.5C2 150.5 20.3333 140.167 22 125.5Z" stroke="#5C3D64" stroke-width="4" stroke-linejoin="round"/>
<path d="M53.5 78.5C64 87 10 87.5 20.5 78.5C23.8709 75.6107 34.5 75 38 75C41.5 75 49.6138 75.354 53.5 78.5Z" stroke="#5C3D64" stroke-width="4" stroke-linejoin="round"/>
<path d="M36.5 110.5C37.5 94.5 20.5 74 20.5 62C20.5 52.3944 29.8633 48.4652 31.5 39C32.9699 30.4992 25.5193 24.2626 28 16C29.637 10.5476 41.5 2 41.5 2C41.5 2 35.043 13.0229 36.5 19.5C37.9187 25.8067 45.1024 31.0365 45 37.5C44.8907 44.4027 34.3022 47.8078 36.5 55.5C37.5 59 51.0819 57.975 51.5 65.5C52 74.5 39.5 88 39.5 88" stroke="url(#paint0_linear_234_14502)" stroke-width="4" stroke-linecap="round" stroke-linejoin="round"/>
<defs>
<linearGradient id="paint0_linear_234_14502" x1="33.2548" y1="2" x2="36" y2="87" gradientUnits="userSpaceOnUse">
<stop stop-color="#EA95FF"/>
<stop offset="1" stop-color="#8100A2" stop-opacity="0"/>
</linearGradient>
</defs>
</svg>
