<svg width="82" height="104" viewBox="0 0 82 104" fill="none" xmlns="http://www.w3.org/2000/svg">
<path d="M2.00012 32.1051C1.99986 45.7893 2.00012 101.894 2.00012 101.894H8.84243M2.00012 32.1051C2.00028 23.5471 6.81726 14.4538 14.1081 8.84202M2.00012 32.1051C3.87964 48.0798 12.2118 60.8281 23.895 67.2482M14.1081 8.84202C18.4751 5.48062 30.7371 2 41.6845 2C55.0234 2 61.9637 5.4336 66.5851 8.84202M14.1081 8.84202C34.8424 8.84202 41.6845 22.5262 41.6845 38.9472C41.6845 22.5262 48.5266 8.84202 66.5851 8.84202M66.5851 8.84202C73.8595 14.2072 80 22.9003 80 32.1051V40.9999M80 40.9999V49.8946C78.6318 79.9998 52.6318 100.526 32.1053 101.894H8.84243M80 40.9999C74.5265 58.1051 59.4739 71.7893 41.6845 71.7893C35.2535 71.7893 29.2255 70.1774 23.895 67.2482M8.84243 101.894C23.895 92.3156 23.895 82.7367 23.895 67.2482" stroke="#F0C000" stroke-width="4" stroke-linecap="round" stroke-linejoin="round"/>
<circle cx="20.975" cy="30.975" r="6.975" fill="#F0C000"/>
<circle cx="62.0275" cy="30.975" r="6.975" fill="#F0C000"/>
</svg>
