<svg width="117" height="144" viewBox="0 0 117 144" fill="none" xmlns="http://www.w3.org/2000/svg">
<circle cx="56.8312" cy="69.6649" r="39.1651" fill="#F0C000"/>
<ellipse cx="58.4632" cy="69.6649" rx="37.5333" ry="38.0772" fill="#D6AB00"/>
<path d="M93.9083 69.6649C93.9083 89.5842 78.4839 105.654 59.5509 105.654C40.6179 105.654 25.1935 89.5842 25.1935 69.6649C25.1935 49.7456 40.6179 33.6756 59.5509 33.6756C78.4839 33.6756 93.9083 49.7456 93.9083 69.6649Z" fill="url(#paint0_linear_218_14426)" stroke="#1D164E" stroke-width="2"/>
<path d="M61.1829 45.7307V94.6871" stroke="#F0C000" stroke-width="4" stroke-linecap="round" stroke-linejoin="round"/>
<path d="M72.0621 59.2168V55.5528C68.3904 51.8886 62.8828 50.0573 57.3752 51.8888C51.8676 53.7203 42.6882 59.2168 42.6882 70.2088C42.6882 81.2008 50.0317 86.6968 57.3752 88.5288C64.7186 90.3608 68.3904 88.5288 72.0621 84.8648V81.2008C66.5545 84.8648 62.8828 86.2388 57.3752 84.8648C51.8676 83.4908 46.36 75.7048 46.36 70.2088C46.36 62.8806 53.7034 57.3849 57.3752 55.5528C61.0469 53.7206 68.3904 55.5528 72.0621 59.2168Z" fill="#F0C000" stroke="#F0C000" stroke-linecap="round" stroke-linejoin="round"/>
<path d="M107.656 83.7208C107.254 84.7495 107.761 85.9096 108.79 86.3121C109.819 86.7145 110.979 86.2069 111.381 85.1783L107.656 83.7208ZM38.0077 19.2414C37.6342 20.2809 38.174 21.4264 39.2135 21.8L56.1529 27.8874C57.1924 28.261 58.3379 27.7211 58.7114 26.6816C59.085 25.6421 58.5452 24.4966 57.5057 24.1231L42.4484 18.712L47.8595 3.65479C48.233 2.61531 47.6932 1.46981 46.6537 1.09626C45.6142 0.722703 44.4687 1.26255 44.0952 2.30203L38.0077 19.2414ZM111.381 85.1783C121.468 59.3981 116.178 36.6185 101.654 23.2518C87.1394 9.89341 63.8973 6.39276 39.0373 18.1087L40.7425 21.727C64.4394 10.5592 85.8604 14.1525 98.9453 26.195C112.021 38.2291 117.267 59.1572 107.656 83.7208L111.381 85.1783Z" fill="#F0C000"/>
<path d="M8.93102 60.2792C9.33348 59.2505 8.82587 58.0904 7.79723 57.6879C6.76859 57.2855 5.60845 57.7931 5.20599 58.8217L8.93102 60.2792ZM78.5794 124.759C78.953 123.719 78.4131 122.574 77.3736 122.2L60.4342 116.113C59.3948 115.739 58.2493 116.279 57.8757 117.318C57.5022 118.358 58.042 119.503 59.0815 119.877L74.1387 125.288L68.7277 140.345C68.3541 141.385 68.894 142.53 69.9335 142.904C70.9729 143.277 72.1184 142.737 72.492 141.698L78.5794 124.759ZM5.20599 58.8217C-4.88082 84.6019 0.409294 107.382 14.9331 120.748C29.4477 134.107 52.6899 137.607 77.5499 125.891L75.8447 122.273C52.1477 133.441 30.7267 129.847 17.6418 117.805C4.56602 105.771 -0.679794 84.8428 8.93102 60.2792L5.20599 58.8217Z" fill="#F0C000"/>
<defs>
<linearGradient id="paint0_linear_218_14426" x1="73.1499" y1="81.0881" x2="4.06695" y2="46.2746" gradientUnits="userSpaceOnUse">
<stop stop-color="#1D164E"/>
<stop offset="1" stop-color="#1D164E" stop-opacity="0.4"/>
</linearGradient>
</defs>
</svg>
