<svg width="37" height="18" viewBox="0 0 37 18" fill="none" xmlns="http://www.w3.org/2000/svg">
<path d="M14.4913 6.21479C12.4877 -2.23864 6.78646 1.93318 1.68147 3.08592C-0.128358 3.49459 2.13366 4.78758 3.08123 4.78758C6.8688 4.78758 0.232554 7.22876 4.50843 6.95583C8.37834 6.70882 2.77953 10.3393 7.39028 8.95941C11.1504 7.83411 5.48415 11.9121 10.2172 10.7434C12.4404 10.1945 10.8485 12.0608 13.2912 11.5393" stroke="#1D164E" stroke-linecap="round"/>
<path d="M22.7327 6.17707C24.7363 -2.27636 30.4375 1.89546 35.5425 3.0482C37.3523 3.45687 35.0903 4.74987 34.1427 4.74987C30.3552 4.74987 36.9914 7.19104 32.7155 6.91811C28.8456 6.6711 34.4444 10.3015 29.8337 8.92169C26.0736 7.79639 31.7398 11.8744 27.0067 10.7057C24.7836 10.1568 26.3755 12.0231 23.9328 11.5016" stroke="#1D164E" stroke-linecap="round"/>
<path d="M14.4913 7.69693C15.3421 4.45828 21.6897 4.40339 22.7327 7.69693" stroke="#1D164E" stroke-linecap="round"/>
<path d="M14.3815 9.39844C13.5855 12.7469 15.3222 13.2135 15.3222 14.2015C15.3222 15.1896 14.2793 15.9855 14.4988 16.26C15.1431 17.0653 21.5525 17.4127 22.7327 16.26C22.9013 16.0953 21.9093 15.104 21.9093 14.2015C21.9093 13.2135 23.7756 12.8018 22.8699 9.39844" stroke="#1D164E" stroke-linecap="round" stroke-linejoin="round"/>
<path d="M18.6158 9.20663L18.9415 8.82732C18.7413 8.65536 18.4419 8.66864 18.2577 8.85765L18.6158 9.20663ZM15.269 9.85303C15.4811 10.0299 15.7964 10.0013 15.9733 9.78927C16.1501 9.5772 16.1216 9.26191 15.9095 9.08505L15.269 9.85303ZM17.8255 9.18413C17.5889 9.32649 17.5125 9.63371 17.6548 9.87033C17.7972 10.107 18.1044 10.1834 18.341 10.041L17.8255 9.18413ZM18.933 10.0308C19.172 10.1692 19.4779 10.0877 19.6163 9.84878C19.7547 9.60983 19.6732 9.30392 19.4343 9.1655L18.933 10.0308ZM21.371 9.19957C21.178 9.39707 21.1817 9.71363 21.3792 9.90663C21.5767 10.0996 21.8933 10.096 22.0863 9.89848L21.371 9.19957ZM14.7326 9.30003C14.9061 9.51619 15.0852 9.6997 15.269 9.85303L15.9095 9.08505C15.7818 8.97855 15.6487 8.84381 15.5125 8.67409L14.7326 9.30003ZM18.341 10.041C18.5329 9.92558 18.687 9.80815 18.794 9.7188C18.8477 9.67393 18.8903 9.63557 18.9205 9.60731C18.9357 9.59317 18.9478 9.5815 18.9567 9.57275C18.9611 9.56837 18.9648 9.56472 18.9677 9.56185C18.9691 9.56041 18.9703 9.55917 18.9714 9.55813C18.9719 9.55761 18.9723 9.55714 18.9727 9.55672C18.9729 9.55651 18.9731 9.55631 18.9733 9.55613C18.9734 9.55604 18.9735 9.55595 18.9736 9.55586C18.9736 9.55582 18.9737 9.55576 18.9737 9.55574C18.9738 9.55567 18.9738 9.55561 18.6158 9.20663C18.2577 8.85765 18.2577 8.85759 18.2578 8.85753C18.2578 8.85751 18.2579 8.85745 18.2579 8.85742C18.258 8.85735 18.2581 8.85728 18.2581 8.85721C18.2582 8.85707 18.2584 8.85695 18.2585 8.85684C18.2587 8.85663 18.2589 8.85645 18.259 8.85633C18.2592 8.85609 18.2593 8.85603 18.2591 8.85616C18.2589 8.85641 18.2579 8.8574 18.2562 8.85907C18.2528 8.86241 18.2466 8.86847 18.2376 8.87683C18.2197 8.89358 18.1912 8.91939 18.1532 8.95112C18.0767 9.01499 17.9645 9.10053 17.8255 9.18413L18.341 10.041ZM18.6158 9.20663C18.29 9.58594 18.29 9.58598 18.2901 9.58602C18.2901 9.58604 18.2902 9.58608 18.2902 9.58611C18.2903 9.58617 18.2903 9.58623 18.2904 9.58629C18.2906 9.58642 18.2907 9.58656 18.2909 9.58672C18.2912 9.58702 18.2917 9.58737 18.2921 9.58777C18.2931 9.58857 18.2942 9.58955 18.2956 9.59071C18.2983 9.59303 18.302 9.59608 18.3064 9.5998C18.3154 9.60724 18.3278 9.61738 18.3433 9.62987C18.3744 9.65482 18.4185 9.68923 18.4739 9.73009C18.5844 9.81153 18.7419 9.92009 18.933 10.0308L19.4343 9.1655C19.2813 9.07692 19.1549 8.98972 19.0674 8.92522C19.0239 8.89311 18.9905 8.86701 18.9689 8.84969C18.9581 8.84104 18.9503 8.83461 18.9456 8.83076C18.9433 8.82883 18.9418 8.82755 18.9411 8.82696C18.9408 8.82667 18.9406 8.82655 18.9407 8.82661C18.9407 8.82663 18.9408 8.82671 18.9409 8.82682C18.941 8.82688 18.9411 8.82695 18.9412 8.82704C18.9412 8.82708 18.9413 8.82712 18.9413 8.82717C18.9414 8.82719 18.9414 8.82723 18.9414 8.82724C18.9415 8.82728 18.9415 8.82732 18.6158 9.20663ZM22.0863 9.89848C22.2671 9.71338 22.4289 9.48823 22.5705 9.22151L21.6872 8.75262C21.5842 8.94671 21.4766 9.09158 21.371 9.19957L22.0863 9.89848Z" fill="#1D164E"/>
<path d="M18.1766 8.90447L18.6158 8.46533L19.0275 8.90447L18.6158 10.4689L18.1766 8.90447Z" fill="#1D164E" stroke="#1D164E" stroke-linecap="round" stroke-linejoin="round"/>
<circle cx="16.7495" cy="7.86148" r="1.15274" fill="#1D164E"/>
<circle cx="16.6397" cy="7.86155" r="0.713601" fill="#FDF7FF"/>
<circle cx="16.9141" cy="7.47738" r="0.219569" fill="#1D164E"/>
<circle cx="20.4745" cy="7.86148" r="1.15274" fill="#1D164E"/>
<circle cx="20.4197" cy="7.86155" r="0.713601" fill="#FDF7FF"/>
<circle cx="20.6941" cy="7.47738" r="0.219569" fill="#1D164E"/>
</svg>
