<svg width="118" height="68" viewBox="0 0 118 68" fill="none" xmlns="http://www.w3.org/2000/svg">
<g filter="url(#filter0_i_54_538)">
<path d="M19.3828 40.9683C18.9828 41.4323 18.6788 41.5763 18.2948 41.7203C17.8148 38.5523 16.1188 37.2083 14.0868 37.2083C11.8948 37.2083 9.31877 39.2563 9.44677 43.0643C9.57477 46.8243 12.3588 48.5683 14.5668 48.2003C16.0548 47.9443 18.1348 46.7763 18.3588 42.6643C19.0628 42.3603 19.6388 41.9763 19.9908 41.2883C20.1508 40.9523 19.7508 40.5843 19.3828 40.9683ZM12.0868 42.9683C11.9908 40.6963 12.7748 38.1683 14.5028 38.3123C14.2788 38.5363 13.9908 39.1763 13.9268 39.7363C13.6548 41.5763 15.2708 43.1283 17.2708 42.8723C17.3348 43.8003 16.9828 46.4083 15.3988 46.9203C13.4148 47.5603 12.1828 45.3363 12.0868 42.9683ZM16.1508 39.0963C16.9028 40.0083 17.1428 41.1603 17.1908 41.8803C15.5428 41.8803 15.1908 39.7203 16.1508 39.0963ZM26.1069 41.5123C25.6109 41.3683 25.3229 41.7363 25.1949 42.0243C24.8269 42.8083 25.0509 43.4323 26.3309 43.7523C28.4109 44.2803 27.0029 48.1683 25.5949 47.2723C25.0829 46.8563 25.5149 45.1283 25.4029 44.8563C25.0349 44.0243 23.5949 44.1843 23.4989 45.0963C23.3389 46.6323 23.0029 47.7043 22.2509 47.3203C21.1789 46.7763 21.1629 44.0883 22.4909 42.5683C23.0029 41.9923 21.9789 41.3363 20.9549 41.6723C19.2109 42.3123 18.5229 45.7843 20.3469 47.6243C21.4349 48.7443 23.3229 48.6963 24.0269 47.2563C24.3309 48.1683 25.7229 48.6643 26.7469 48.0243C28.8109 46.7763 28.7469 42.2963 26.1069 41.5123ZM32.5974 46.5843C32.4214 46.8243 32.3574 47.0803 32.1494 47.1443C30.5014 47.6403 31.5894 40.7603 31.4774 39.0163C31.3654 37.5923 29.3494 38.2963 29.2534 38.8083C28.5974 41.9763 28.9334 45.0323 29.5094 46.4723C30.4054 48.7923 32.5974 48.7763 33.0934 46.9363C33.1734 46.5843 32.8054 46.3443 32.5974 46.5843ZM38.844 42.5203C38.716 41.6243 36.78 41.3363 36.876 42.6003C37.196 46.4243 36.78 46.9523 36.348 47.1123C34.844 47.5923 34.924 44.6163 35.212 42.4563C35.324 41.6243 33.916 41.4643 33.644 42.2483C32.46 45.7843 34.3 48.8403 36.924 47.5923C36.924 47.5923 36.316 53.5763 34.7 50.0883C34.428 49.4963 33.116 49.9283 33.196 50.5363C33.26 51.1443 34.092 51.7363 34.828 51.8963C39.02 52.7443 39.66 46.4723 38.844 42.5203Z" fill="#C003F0"/>
</g>
<path d="M45.2075 18.0875C38.6423 -9.61228 19.9608 4.05774 3.23302 7.83498C-2.69735 9.17409 4.71471 13.4109 7.81967 13.4109C20.2306 13.4109 -1.51473 21.41 12.4963 20.5157C25.177 19.7063 6.8311 31.6024 21.9394 27.0809C34.2604 23.3936 15.6934 36.7561 31.2026 32.9267C38.4873 31.128 33.2711 37.2435 41.2753 35.5348" stroke="#FDF7FF" stroke-width="2" stroke-linecap="round"/>
<path d="M72.2127 17.964C78.7779 -9.73582 97.4594 3.93421 114.187 7.71145C120.118 9.05056 112.706 13.2874 109.601 13.2874C97.1896 13.2874 118.935 21.2865 104.924 20.3922C92.2432 19.5828 110.589 31.4789 95.4808 26.9574C83.1598 23.2701 101.727 36.6326 86.2176 32.8031C78.9329 31.0045 84.1491 37.12 76.145 35.4112" stroke="#FDF7FF" stroke-width="2" stroke-linecap="round"/>
<path d="M45.2076 22.944C47.9956 12.3318 68.7952 12.1519 72.2127 22.944" stroke="#FDF7FF" stroke-width="2" stroke-linecap="round"/>
<path d="M44.8478 28.5199C42.2398 39.4919 47.9304 41.0208 47.9304 44.2584C47.9304 47.496 44.5129 50.1041 45.2324 51.0035C47.3435 53.6424 68.3455 54.7807 72.2127 51.0035C72.7651 50.4639 69.5147 47.2157 69.5147 44.2584C69.5147 41.0208 75.6302 39.6718 72.6624 28.5199" stroke="#FDF7FF" stroke-width="2" stroke-linecap="round" stroke-linejoin="round"/>
<path d="M58.7226 27.8904L59.0483 27.5111C58.8481 27.3391 58.5487 27.3524 58.3645 27.5414L58.7226 27.8904ZM47.2572 27.9266C47.4391 28.1343 47.755 28.1552 47.9627 27.9732C48.1705 27.7912 48.1913 27.4754 48.0094 27.2676L47.2572 27.9266ZM49.5358 28.687C49.3129 28.524 49.0001 28.5726 48.8371 28.7955C48.6741 29.0184 48.7227 29.3313 48.9456 29.4942L49.5358 28.687ZM49.9393 30.1177C50.1835 30.2465 50.486 30.153 50.6148 29.9088C50.7437 29.6645 50.6501 29.3621 50.4059 29.2332L49.9393 30.1177ZM52.3202 29.8573C52.0466 29.8201 51.7947 30.0119 51.7575 30.2855C51.7204 30.5591 51.9122 30.8111 52.1858 30.8482L52.3202 29.8573ZM53.3735 30.8999C53.6493 30.887 53.8626 30.653 53.8497 30.3772C53.8369 30.1013 53.6029 29.8881 53.327 29.901L53.3735 30.8999ZM55.3186 29.4756C55.0601 29.5727 54.9293 29.861 55.0264 30.1195C55.1235 30.378 55.4118 30.5088 55.6703 30.4117L55.3186 29.4756ZM56.7305 29.9338C56.9748 29.8051 57.0685 29.5027 56.9398 29.2584C56.8111 29.014 56.5087 28.9203 56.2644 29.049L56.7305 29.9338ZM57.9929 27.8794C57.7824 28.0581 57.7566 28.3736 57.9354 28.5841C58.1141 28.7946 58.4296 28.8204 58.6401 28.6417L57.9929 27.8794ZM58.7727 28.569C58.9925 28.7361 59.3062 28.6935 59.4733 28.4737C59.6405 28.2539 59.5978 27.9402 59.378 27.773L58.7727 28.569ZM60.834 28.7407C60.5951 28.6022 60.2891 28.6837 60.1507 28.9227C60.0123 29.1616 60.0938 29.4676 60.3328 29.606L60.834 28.7407ZM61.1601 30.0498C61.4078 30.172 61.7076 30.0703 61.8298 29.8227C61.952 29.5751 61.8503 29.2753 61.6027 29.1531L61.1601 30.0498ZM63.2059 29.7938C62.9414 29.7142 62.6626 29.864 62.583 30.1284C62.5034 30.3929 62.6532 30.6717 62.9176 30.7513L63.2059 29.7938ZM63.8493 30.9793C64.1208 31.03 64.3819 30.8509 64.4325 30.5795C64.4832 30.308 64.3041 30.0469 64.0327 29.9963L63.8493 30.9793ZM65.6932 30.0802C65.4184 30.1081 65.2183 30.3534 65.2462 30.6281C65.2741 30.9029 65.5194 31.103 65.7941 31.0751L65.6932 30.0802ZM66.7684 30.8899C67.034 30.8144 67.1881 30.5378 67.1126 30.2722C67.037 30.0066 66.7605 29.8525 66.4949 29.9281L66.7684 30.8899ZM67.946 29.2067C67.7245 29.3716 67.6787 29.6849 67.8436 29.9064C68.0085 30.1279 68.3218 30.1737 68.5432 30.0088L67.946 29.2067ZM69.2804 29.3618C69.4734 29.1643 69.4697 28.8477 69.2722 28.6547C69.0747 28.4617 68.7581 28.4654 68.5651 28.6629L69.2804 29.3618ZM69.5792 27.317C69.4384 27.5546 69.517 27.8613 69.7546 28.0021C69.9922 28.1428 70.2989 28.0642 70.4396 27.8267L69.5792 27.317ZM46.8862 27.4839C47.0094 27.6374 47.1331 27.7849 47.2572 27.9266L48.0094 27.2676C47.895 27.1371 47.7805 27.0006 47.6661 26.8579L46.8862 27.4839ZM48.9456 29.4942C49.2765 29.7362 49.6081 29.943 49.9393 30.1177L50.4059 29.2332C50.1193 29.082 49.8288 28.9012 49.5358 28.687L48.9456 29.4942ZM52.1858 30.8482C52.5917 30.9032 52.9886 30.9178 53.3735 30.8999L53.327 29.901C52.9993 29.9162 52.663 29.9038 52.3202 29.8573L52.1858 30.8482ZM55.6703 30.4117C56.0497 30.2692 56.4046 30.1055 56.7305 29.9338L56.2644 29.049C55.9711 29.2036 55.6545 29.3494 55.3186 29.4756L55.6703 30.4117ZM58.6401 28.6417C58.7786 28.5241 58.8865 28.4258 58.9608 28.3559C58.998 28.3209 59.0268 28.2929 59.0469 28.2731C59.0569 28.2632 59.0648 28.2554 59.0704 28.2497C59.0732 28.2469 59.0755 28.2446 59.0772 28.2428C59.0781 28.242 59.0788 28.2413 59.0793 28.2407C59.0796 28.2404 59.0799 28.2401 59.0801 28.2399C59.0802 28.2398 59.0803 28.2397 59.0804 28.2396C59.0804 28.2396 59.0805 28.2395 59.0805 28.2395C59.0805 28.2395 59.0806 28.2394 59.0806 28.2394C59.0806 28.2394 59.0806 28.2394 58.7226 27.8904C58.3645 27.5414 58.3645 27.5414 58.3646 27.5413C58.3646 27.5413 58.3646 27.5413 58.3646 27.5413C58.3646 27.5413 58.3647 27.5412 58.3647 27.5412C58.3647 27.5411 58.3648 27.5411 58.3648 27.5411C58.3649 27.541 58.3649 27.5409 58.3649 27.5409C58.365 27.5409 58.3648 27.541 58.3646 27.5413C58.364 27.5418 58.363 27.5429 58.3614 27.5446C58.3581 27.5478 58.3528 27.5532 58.3453 27.5606C58.3303 27.5753 58.3068 27.5981 58.2753 27.6277C58.2123 27.6871 58.1172 27.7739 57.9929 27.8794L58.6401 28.6417ZM58.7226 27.8904C58.3968 28.2697 58.3968 28.2697 58.3968 28.2697C58.3968 28.2697 58.3969 28.2697 58.3969 28.2698C58.3969 28.2698 58.3969 28.2698 58.397 28.2698C58.397 28.2699 58.3971 28.27 58.3972 28.27C58.3974 28.2702 58.3976 28.2703 58.3978 28.2705C58.3982 28.2709 58.3988 28.2714 58.3995 28.272C58.4009 28.2732 58.4028 28.2748 58.4051 28.2768C58.4098 28.2808 58.4165 28.2864 58.425 28.2935C58.4421 28.3078 58.4667 28.3282 58.4986 28.354C58.5622 28.4057 58.6545 28.4791 58.7727 28.569L59.378 27.773C59.269 27.6901 59.185 27.6232 59.129 27.5778C59.101 27.555 59.08 27.5377 59.0664 27.5263C59.0597 27.5207 59.0547 27.5165 59.0517 27.5139C59.0502 27.5126 59.0491 27.5117 59.0486 27.5113C59.0483 27.511 59.0481 27.5109 59.0481 27.5109C59.0481 27.5108 59.0481 27.5108 59.0481 27.5109C59.0481 27.5109 59.0482 27.5109 59.0482 27.5109C59.0482 27.511 59.0482 27.511 59.0483 27.511C59.0483 27.511 59.0483 27.511 59.0483 27.511C59.0483 27.511 59.0483 27.5111 58.7226 27.8904ZM60.3328 29.606C60.5895 29.7547 60.8665 29.9049 61.1601 30.0498L61.6027 29.1531C61.331 29.019 61.0736 28.8794 60.834 28.7407L60.3328 29.606ZM62.9176 30.7513C63.2202 30.8424 63.5316 30.9201 63.8493 30.9793L64.0327 29.9963C63.7538 29.9443 63.4775 29.8756 63.2059 29.7938L62.9176 30.7513ZM65.7941 31.0751C66.1187 31.0422 66.4445 30.982 66.7684 30.8899L66.4949 29.9281C66.2307 30.0032 65.9629 30.0528 65.6932 30.0802L65.7941 31.0751ZM68.5432 30.0088C68.7962 29.8204 69.0424 29.6053 69.2804 29.3618L68.5651 28.6629C68.3625 28.8703 68.1556 29.0506 67.946 29.2067L68.5432 30.0088ZM70.4396 27.8267C70.5199 27.691 70.5987 27.5506 70.6758 27.4053L69.7925 26.9365C69.7225 27.0684 69.6513 27.1952 69.5792 27.317L70.4396 27.8267Z" fill="#FDF7FF"/>
<path d="M57.2836 26.9011L58.7225 25.4622L60.0716 26.9011L58.7225 32.0274L57.2836 26.9011Z" fill="#FDF7FF" stroke="#FDF7FF" stroke-width="2" stroke-linecap="round" stroke-linejoin="round"/>
<circle cx="52.607" cy="23.4837" r="3.77724" fill="#FDF7FF"/>
<circle cx="52.2473" cy="23.4836" r="2.33829" fill="#1D164E"/>
<circle cx="53.1466" cy="22.2245" r="0.719475" fill="#FDF7FF"/>
<circle cx="64.8133" cy="23.4837" r="3.77724" fill="#FDF7FF"/>
<circle cx="64.6334" cy="23.4836" r="2.33829" fill="#1D164E"/>
<circle cx="65.5328" cy="22.2245" r="0.719475" fill="#FDF7FF"/>
<g filter="url(#filter1_i_54_538)">
<path d="M80.3342 41.8803C78.7982 41.7843 78.0302 43.1123 78.0302 43.0163C78.0302 42.1843 78.2862 41.3683 77.7742 41.3523C75.5502 41.3043 76.1582 49.8003 76.7182 51.0803C77.0702 51.8963 78.1262 51.4963 78.3182 51.0323C78.5902 50.3283 78.6062 49.1443 78.5582 47.9283C79.2142 47.9763 80.1582 47.8323 80.9582 47.2723C82.7982 45.9283 82.7342 42.0403 80.3182 41.8803H80.3342ZM78.4942 45.7203C78.5102 43.1443 80.7502 42.7283 81.0382 44.3603C81.2622 45.7363 80.6222 47.2883 78.5262 47.1923C78.5102 46.6643 78.4942 46.1683 78.4942 45.7203ZM83.0306 44.6803C82.5666 49.4323 88.5826 49.7683 88.6306 44.7603C88.6306 40.9043 83.5266 40.5683 83.0306 44.6803ZM85.9426 47.5603C84.2306 47.0483 84.8386 43.1123 86.0866 43.0003C86.3426 43.2883 85.9106 44.8883 87.7026 44.9043C87.8466 46.5203 86.9986 47.8643 85.9426 47.5603ZM92.7008 42.2483C92.7648 39.7523 92.4128 39.0803 92.3168 38.9203C92.1248 38.5523 91.6928 38.5203 91.4048 38.8243C91.3248 38.9203 91.2608 39.0323 91.2128 39.1603C90.8288 39.8963 90.5408 41.5123 90.4768 42.2803C89.8528 42.2803 89.5808 42.2323 89.3408 42.3443C89.1008 42.4883 89.0848 42.8883 89.3248 43.0163C89.5168 43.1283 90.2208 43.1123 90.3648 43.0963V44.2803C90.3648 45.5443 90.5088 46.5203 90.8448 47.2723C91.5328 48.6803 93.6288 48.5363 94.0608 47.4803C94.1248 47.3203 93.8368 47.0003 93.3568 47.2403C92.3168 47.7683 92.7648 44.3123 92.6688 43.0163C92.9408 42.9523 93.6768 42.9043 94.0288 42.7443C94.2528 42.6483 94.3168 42.2483 93.9968 42.2483H92.7008ZM95.8027 39.3683C94.5707 39.6403 94.8747 41.4643 96.1227 41.3523C97.2427 41.1443 97.1627 39.1923 95.8027 39.3683ZM96.7947 42.5523C96.5867 42.1043 95.5307 41.8323 95.3067 42.3443C95.1627 42.6483 94.5867 46.7123 95.3227 47.8483C95.7227 48.4723 96.6507 48.5043 96.9067 47.7683C97.2107 46.8563 97.1947 43.3363 96.7947 42.5523ZM98.0774 44.6803C97.6134 49.4323 103.629 49.7683 103.677 44.7603C103.677 40.9043 98.5734 40.5683 98.0774 44.6803ZM100.989 47.5603C99.2774 47.0483 99.8854 43.1123 101.133 43.0003C101.389 43.2883 100.957 44.8883 102.749 44.9043C102.893 46.5203 102.045 47.8643 100.989 47.5603ZM108.692 41.8963C107.332 42.0723 106.484 43.5443 106.516 44.2163C106.244 43.6883 106.356 42.5203 106.388 42.2643C106.452 41.8643 106.404 41.4323 105.94 41.4323C105.348 41.4483 104.9 42.2483 104.724 42.8723C104.212 44.8243 104.948 47.5123 105.492 48.0403C106.068 48.6003 106.948 48.3443 107.156 47.5603C107.22 47.3203 107.188 47.0643 107.124 46.8083L106.996 46.4083C106.484 44.0083 107.764 42.9683 108.372 42.8723C109.364 42.6643 109.78 43.8963 108.868 47.2563C108.516 48.4723 110.484 48.7763 110.836 47.4003C111.572 44.4883 111.124 41.5603 108.692 41.8963Z" fill="#C003F0"/>
</g>
<path d="M52.4727 42.3699C52.2928 43.2692 52.6747 45.5618 53.1022 46.4169C53.9116 48.0357 55.4921 48.4854 56.4298 48.4854C59.2178 48.4854 59.7574 44.4384 57.3247 46.0572C55.384 47.3486 53.7318 45.6075 54.5412 44.4384" stroke="#FDF7FF" stroke-linecap="round" stroke-linejoin="round"/>
<path d="M65.1215 41.6504C65.3014 42.5497 64.9195 44.8424 64.492 45.6974C63.6826 47.3163 62.1021 47.7659 61.1644 47.7659C58.3765 47.7659 57.8368 43.7189 60.2696 45.3377C62.2102 46.6291 63.8625 44.888 63.053 43.7189" stroke="#FDF7FF" stroke-linecap="round" stroke-linejoin="round"/>
<path d="M68.5537 51.9357C68.5569 52.2042 66.8635 52.3557 64.9761 52.3781C63.0887 52.4005 61.0701 52.2341 61.0669 51.9656C61.0638 51.6971 63.0818 51.428 64.9692 51.4056C66.8566 51.3832 68.5505 51.6671 68.5537 51.9357Z" fill="#7F009F"/>
<path d="M62.14 58.0183C61.4737 54.4649 60.5543 52.1347 61.0607 52.1727C65.7374 52.5233 67.0864 51.8128 69.6046 52.1727C70.6467 52.3216 71.6424 52.8458 72.4825 54.4209C73.2019 55.7699 73.0221 57.8384 71.7629 59.1875C70.7439 60.2793 69.7144 61.1888 67.9857 61.4358C64.6582 61.9111 62.4435 59.6371 62.14 58.0183Z" fill="#C003F0" stroke="#7F009F" stroke-width="2" stroke-linecap="round" stroke-linejoin="round"/>
<path fill-rule="evenodd" clip-rule="evenodd" d="M54.8149 42.524C54.2975 42.7275 54.1928 43.2052 54.1796 43.3903C54.167 43.5677 54.2051 43.7057 54.217 43.7478C54.247 43.8542 54.2896 43.9406 54.3067 43.975C54.3504 44.0624 54.4077 44.1588 54.4613 44.2455C54.5741 44.4281 54.7385 44.6769 54.9332 44.9659C55.0859 45.1923 55.2636 45.4528 55.4589 45.738C56.3006 46.0497 56.9602 45.6042 57.4374 45.2818C57.4687 45.2607 57.4991 45.2401 57.5288 45.2203C57.5036 45.1835 57.4785 45.1469 57.4536 45.1107C57.1392 44.6523 56.858 44.2423 56.6277 43.9014C57.4645 43.4766 58.246 42.9514 58.9456 42.2968L59.1276 42.6143L59.1276 42.6143C59.431 43.1437 59.7988 43.7853 60.1992 44.4645C60.2473 44.5462 60.2961 44.6287 60.3455 44.7119C61.3583 45.277 62.1647 45.2205 62.6485 44.6584C62.4009 44.2546 62.1571 43.8475 61.9221 43.4488C61.5285 42.7812 61.1705 42.1566 60.8684 41.6294C60.7579 41.4367 60.655 41.2571 60.5604 41.0931C60.387 40.7921 60.2367 40.5348 60.1245 40.3548C60.0715 40.2697 60.0107 40.1754 59.952 40.0978C59.9304 40.0692 59.8683 39.9873 59.7795 39.909L59.779 39.9086C59.7463 39.8798 59.6195 39.768 59.4209 39.7023C59.3098 39.6656 59.1215 39.625 58.8949 39.6732C58.647 39.7258 58.4472 39.865 58.3131 40.0359C57.4141 41.1813 56.2305 41.9671 54.8149 42.524ZM64.2648 47.1201C63.8766 47.6456 63.0887 48.0705 62.5264 48.1267C62.9686 48.7489 63.4061 49.3082 63.8143 49.7417C65.0089 51.0103 66.5034 51.5718 67.7468 52.039C67.8418 52.0747 67.9353 52.1098 68.0272 52.1447C69.3791 52.6581 70.4255 53.1247 71.1768 54.1757C71.8703 55.1458 72.1315 56.1736 71.9748 57.1301C71.8191 58.0806 71.2288 59.0932 69.9661 59.9959C67.6729 61.6352 64.8932 61.2743 63.66 59.5491C62.8725 58.4476 62.5836 57.0586 62.3887 55.5646C62.3572 55.3234 62.3273 55.0715 62.2971 54.8174L62.2971 54.8174C62.2392 54.3304 62.1804 53.8356 62.1081 53.3932C61.9963 52.7099 61.8315 51.9945 61.505 51.3852C60.9151 50.2844 59.9282 48.7628 58.9624 47.326L58.9999 47.5C58.9999 47.8983 58.3653 48.614 57.6015 48.8886C58.4501 50.1619 59.2547 51.4202 59.7421 52.3298C59.9081 52.6396 60.0316 53.088 60.1343 53.716C60.2003 54.1194 60.2492 54.5331 60.3029 54.9863L60.3029 54.9863C60.3341 55.2501 60.3669 55.5272 60.4055 55.8233C60.6043 57.3468 60.9343 59.1753 62.0329 60.7122C64.0797 63.5755 68.1973 63.7188 71.1292 61.6229C72.7402 60.4713 73.6913 59.0234 73.9485 57.4534C74.2047 55.8894 73.7504 54.3367 72.8038 53.0126C71.6691 51.4252 70.089 50.7883 68.7372 50.275L68.5378 50.1994C67.2185 49.6999 66.1363 49.2901 65.2704 48.3706C64.9606 48.0417 64.6202 47.6123 64.2648 47.1201Z" fill="#F0C000"/>
<path d="M54 42C53.2285 42.0252 53.0001 40.4999 53.0001 40.4999L57.5 37.5C57.5 37.5 59.0842 37.9677 58.7683 38.7509C58.3767 39.7216 58.2547 42.1786 58.7683 42.8971C59.2819 43.6155 57.5135 44.7184 57 43.9999C56.4864 43.2815 54.8679 41.9717 54 42Z" fill="#7F009F" stroke="#7F009F" stroke-linecap="round" stroke-linejoin="round"/>
<path fill-rule="evenodd" clip-rule="evenodd" d="M54.0426 42.3569C54.4438 42.2603 54.699 42.1989 55 42.4999C55.5266 43.0266 58.7988 41.0974 58.5 40.4999C58.2394 39.9788 58.4908 39.6561 58.8408 39.2069C58.8922 39.141 58.9456 39.0723 58.9999 38.9999C59.0497 38.9335 59.0874 38.8754 59.1138 38.8251C59.1858 38.8193 59.2579 38.8165 59.3298 38.817C59.5511 38.8186 59.8643 38.8502 60.1562 39.0241C60.5118 39.236 60.7272 39.5954 60.7531 39.9983C60.7744 40.3284 60.6642 40.6069 60.5788 40.779C60.4854 40.9674 60.3629 41.1441 60.239 41.3008C59.7576 41.9092 58.9313 42.6151 58.116 43.2042C57.3018 43.7926 56.3702 44.3575 55.6363 44.62C55.447 44.6878 55.2379 44.7476 55.026 44.7747C54.8306 44.7998 54.5287 44.8113 54.2216 44.6794C53.852 44.5208 53.5915 44.2039 53.5027 43.8128C53.4287 43.4864 53.4897 43.1812 53.5554 42.965C53.6159 42.7661 53.7112 42.5785 53.8177 42.409C53.8978 42.3917 53.9725 42.3737 54.0426 42.3569ZM59.3381 40.8181C59.3379 40.8182 59.3345 40.8181 59.3281 40.8172C59.335 40.8175 59.3382 40.818 59.3381 40.8181ZM54.7719 42.7909C54.7623 42.7922 54.7634 42.7913 54.7732 42.7908L54.7719 42.7909ZM55.4628 43.5704C55.4627 43.5705 55.4632 43.5676 55.4647 43.5615C55.4638 43.5673 55.463 43.5703 55.4628 43.5704Z" fill="#F0C000"/>
<path d="M57.6512 37.0648C57.7247 37.1756 56.7574 37.9468 55.3053 38.9101C53.8531 39.8734 52.6164 40.5645 52.5428 40.4536C52.4693 40.3428 53.5868 39.472 55.039 38.5087C56.4911 37.5454 57.5776 36.954 57.6512 37.0648Z" fill="#F0C000"/>
<g filter="url(#filter2_f_54_538)">
<circle cx="61.667" cy="49.0917" r="0.642282" transform="rotate(14.9396 61.667 49.0917)" fill="#F2BFFF"/>
</g>
<g filter="url(#filter3_f_54_538)">
<circle cx="64.1684" cy="50.8738" r="0.481712" transform="rotate(14.9396 64.1684 50.8738)" fill="#F2BFFF"/>
</g>
<g filter="url(#filter4_f_54_538)">
<circle cx="59.8517" cy="44.2186" r="0.481712" transform="rotate(14.9396 59.8517 44.2186)" fill="#F2BFFF"/>
</g>
<defs>
<filter id="filter0_i_54_538" x="9.31876" y="37.2084" width="30.3412" height="18.3679" filterUnits="userSpaceOnUse" color-interpolation-filters="sRGB">
<feFlood flood-opacity="0" result="BackgroundImageFix"/>
<feBlend mode="normal" in="SourceGraphic" in2="BackgroundImageFix" result="shape"/>
<feColorMatrix in="SourceAlpha" type="matrix" values="0 0 0 0 0 0 0 0 0 0 0 0 0 0 0 0 0 0 127 0" result="hardAlpha"/>
<feOffset dy="2"/>
<feGaussianBlur stdDeviation="3"/>
<feComposite in2="hardAlpha" operator="arithmetic" k2="-1" k3="1"/>
<feColorMatrix type="matrix" values="0 0 0 0 0.94 0 0 0 0 0.752 0 0 0 0 1.19209e-07 0 0 0 0.5 0"/>
<feBlend mode="normal" in2="shape" result="effect1_innerShadow_54_538"/>
</filter>
<filter id="filter1_i_54_538" x="75.5502" y="38.5204" width="36.0215" height="15.376" filterUnits="userSpaceOnUse" color-interpolation-filters="sRGB">
<feFlood flood-opacity="0" result="BackgroundImageFix"/>
<feBlend mode="normal" in="SourceGraphic" in2="BackgroundImageFix" result="shape"/>
<feColorMatrix in="SourceAlpha" type="matrix" values="0 0 0 0 0 0 0 0 0 0 0 0 0 0 0 0 0 0 127 0" result="hardAlpha"/>
<feOffset dy="2"/>
<feGaussianBlur stdDeviation="3"/>
<feComposite in2="hardAlpha" operator="arithmetic" k2="-1" k3="1"/>
<feColorMatrix type="matrix" values="0 0 0 0 0.94 0 0 0 0 0.752 0 0 0 0 1.19209e-07 0 0 0 0.5 0"/>
<feBlend mode="normal" in2="shape" result="effect1_innerShadow_54_538"/>
</filter>
<filter id="filter2_f_54_538" x="57.0245" y="44.4492" width="9.28488" height="9.28491" filterUnits="userSpaceOnUse" color-interpolation-filters="sRGB">
<feFlood flood-opacity="0" result="BackgroundImageFix"/>
<feBlend mode="normal" in="SourceGraphic" in2="BackgroundImageFix" result="shape"/>
<feGaussianBlur stdDeviation="2" result="effect1_foregroundBlur_54_538"/>
</filter>
<filter id="filter3_f_54_538" x="59.6866" y="46.392" width="8.96365" height="8.96362" filterUnits="userSpaceOnUse" color-interpolation-filters="sRGB">
<feFlood flood-opacity="0" result="BackgroundImageFix"/>
<feBlend mode="normal" in="SourceGraphic" in2="BackgroundImageFix" result="shape"/>
<feGaussianBlur stdDeviation="2" result="effect1_foregroundBlur_54_538"/>
</filter>
<filter id="filter4_f_54_538" x="55.3698" y="39.7368" width="8.96365" height="8.96362" filterUnits="userSpaceOnUse" color-interpolation-filters="sRGB">
<feFlood flood-opacity="0" result="BackgroundImageFix"/>
<feBlend mode="normal" in="SourceGraphic" in2="BackgroundImageFix" result="shape"/>
<feGaussianBlur stdDeviation="2" result="effect1_foregroundBlur_54_538"/>
</filter>
</defs>
</svg>
