<svg width="194" height="115" viewBox="0 0 194 115" fill="none" xmlns="http://www.w3.org/2000/svg">
<g filter="url(#filter0_i_233_14467)">
<path d="M32.4536 74.8238C31.7536 75.6358 31.2216 75.8878 30.5496 76.1398C29.7096 70.5958 26.7416 68.2438 23.1856 68.2438C19.3496 68.2438 14.8416 71.8278 15.0656 78.4918C15.2896 85.0718 20.1616 88.1238 24.0256 87.4798C26.6296 87.0318 30.2696 84.9878 30.6616 77.7918C31.8936 77.2598 32.9016 76.5878 33.5176 75.3838C33.7976 74.7958 33.0976 74.1518 32.4536 74.8238ZM19.6856 78.3238C19.5176 74.3478 20.8896 69.9238 23.9136 70.1758C23.5216 70.5678 23.0176 71.6878 22.9056 72.6678C22.4296 75.8878 25.2576 78.6038 28.7576 78.1558C28.8696 79.7798 28.2536 84.3438 25.4816 85.2398C22.0096 86.3598 19.8536 82.4678 19.6856 78.3238ZM26.7976 71.5478C28.1136 73.1438 28.5336 75.1598 28.6176 76.4198C25.7336 76.4198 25.1176 72.6398 26.7976 71.5478ZM44.2208 75.7758C43.3528 75.5238 42.8488 76.1678 42.6248 76.6718C41.9808 78.0438 42.3728 79.1358 44.6128 79.6958C48.2528 80.6198 45.7888 87.4238 43.3248 85.8558C42.4288 85.1278 43.1848 82.1038 42.9888 81.6278C42.3448 80.1718 39.8248 80.4518 39.6568 82.0478C39.3768 84.7358 38.7888 86.6118 37.4728 85.9398C35.5968 84.9878 35.5688 80.2838 37.8928 77.6238C38.7888 76.6158 36.9968 75.4678 35.2048 76.0558C32.1528 77.1758 30.9488 83.2518 34.1408 86.4718C36.0448 88.4318 39.3488 88.3478 40.5808 85.8278C41.1128 87.4238 43.5488 88.2918 45.3408 87.1718C48.9528 84.9878 48.8408 77.1478 44.2208 75.7758ZM55.5792 84.6518C55.2712 85.0718 55.1592 85.5198 54.7952 85.6318C51.9112 86.4998 53.8152 74.4598 53.6192 71.4078C53.4232 68.9158 49.8952 70.1478 49.7272 71.0438C48.5792 76.5878 49.1672 81.9358 50.1752 84.4558C51.7432 88.5158 55.5792 88.4878 56.4472 85.2678C56.5872 84.6518 55.9432 84.2318 55.5792 84.6518ZM66.5108 77.5398C66.2868 75.9718 62.8988 75.4678 63.0668 77.6798C63.6268 84.3718 62.8988 85.2958 62.1428 85.5758C59.5108 86.4158 59.6508 81.2078 60.1548 77.4278C60.3508 75.9718 57.8868 75.6918 57.4108 77.0638C55.3388 83.2518 58.5588 88.5998 63.1508 86.4158C63.1508 86.4158 62.0868 96.8878 59.2588 90.7838C58.7828 89.7478 56.4868 90.5038 56.6268 91.5678C56.7388 92.6318 58.1948 93.6678 59.4828 93.9478C66.8188 95.4318 67.9388 84.4558 66.5108 77.5398Z" fill="#C003F0"/>
</g>
<path d="M74.4433 36.3881C63.5363 -9.63042 32.5002 13.08 4.70978 19.3553C-5.14252 21.58 7.17137 28.6187 12.3297 28.6187C32.9484 28.6187 -3.1778 41.9079 20.0991 40.4222C41.166 39.0775 10.6874 58.8408 35.7872 51.3292C56.2565 45.2033 25.4107 67.4028 51.1765 61.0409C63.2788 58.0526 54.613 68.2126 67.9105 65.3738" stroke="#FDF7FF" stroke-width="2" stroke-linecap="round"/>
<path d="M119.308 36.1828C130.215 -9.83575 161.251 12.8747 189.041 19.1499C198.894 21.3746 186.58 28.4134 181.421 28.4134C160.803 28.4134 196.929 41.7026 173.652 40.2168C152.585 38.8722 183.064 58.6355 157.964 51.1238C137.495 44.998 168.34 67.1975 142.575 60.8355C130.472 57.8473 139.138 68.0072 125.841 65.1685" stroke="#FDF7FF" stroke-width="2" stroke-linecap="round"/>
<path d="M74.4435 44.4562C79.0752 26.8258 113.63 26.5269 119.308 44.4562" stroke="#FDF7FF" stroke-width="2" stroke-linecap="round"/>
<path d="M73.8457 53.7197C69.5129 71.9478 78.9669 74.4878 78.9669 79.8666C78.9669 85.2454 73.2893 89.5783 74.4846 91.0724C77.9919 95.4564 112.883 97.3477 119.308 91.0724C120.226 90.1759 114.825 84.7797 114.825 79.8666C114.825 74.4878 124.985 72.2467 120.055 53.7197" stroke="#FDF7FF" stroke-width="2" stroke-linecap="round" stroke-linejoin="round"/>
<path d="M96.8963 52.6738L97.222 52.2945C97.0218 52.1225 96.7224 52.1358 96.5382 52.3248L96.8963 52.6738ZM77.8366 52.2128C78.0146 52.4239 78.3301 52.4507 78.5411 52.2726C78.7522 52.0946 78.779 51.7791 78.601 51.5681L77.8366 52.2128ZM79.9861 53.0449C79.7861 52.8546 79.4696 52.8625 79.2793 53.0626C79.0889 53.2627 79.0968 53.5792 79.2969 53.7695L79.9861 53.0449ZM80.1005 54.4863C80.3126 54.6632 80.6279 54.6346 80.8048 54.4225C80.9816 54.2105 80.9531 53.8952 80.741 53.7183L80.1005 54.4863ZM82.3767 54.8879C82.14 54.7457 81.8328 54.8224 81.6907 55.0592C81.5485 55.2959 81.6252 55.6031 81.8619 55.7452L82.3767 54.8879ZM82.8185 56.2638C83.0669 56.3843 83.366 56.2806 83.4866 56.0321C83.6071 55.7836 83.5033 55.4845 83.2549 55.364L82.8185 56.2638ZM85.1217 56.0542C84.8544 55.9852 84.5816 56.1459 84.5125 56.4133C84.4435 56.6806 84.6042 56.9534 84.8716 57.0225L85.1217 56.0542ZM85.9459 57.2408C86.2191 57.2815 86.4735 57.0931 86.5142 56.82C86.5549 56.5468 86.3665 56.2924 86.0933 56.2517L85.9459 57.2408ZM88.0729 56.3377C87.7972 56.3541 87.587 56.5907 87.6033 56.8664C87.6196 57.1421 87.8563 57.3523 88.1319 57.336L88.0729 56.3377ZM89.2187 57.2181C89.4915 57.1751 89.6778 56.9192 89.6348 56.6464C89.5919 56.3736 89.3359 56.1873 89.0632 56.2302L89.2187 57.2181ZM91.0038 55.7439C90.7425 55.8334 90.6033 56.1177 90.6927 56.379C90.7822 56.6402 91.0665 56.7795 91.3278 56.69L91.0038 55.7439ZM92.3363 56.3004C92.5899 56.1913 92.7071 55.8972 92.598 55.6435C92.4889 55.3898 92.1948 55.2727 91.9411 55.3818L92.3363 56.3004ZM93.7397 54.4552C93.5031 54.5976 93.4267 54.9048 93.569 55.1414C93.7114 55.378 94.0186 55.4545 94.2552 55.3121L93.7397 54.4552ZM95.1588 54.7297C95.3862 54.5731 95.4436 54.2617 95.287 54.0343C95.1304 53.8069 94.819 53.7495 94.5916 53.9061L95.1588 54.7297ZM96.1873 52.6552C95.9818 52.8397 95.9648 53.1559 96.1494 53.3613C96.3339 53.5667 96.65 53.5837 96.8555 53.3992L96.1873 52.6552ZM96.9484 53.3595C97.1657 53.5299 97.48 53.4918 97.6504 53.2745C97.8208 53.0572 97.7827 52.7429 97.5654 52.5725L96.9484 53.3595ZM99.0599 53.6434C98.8293 53.4915 98.5192 53.5552 98.3673 53.7858C98.2153 54.0164 98.2791 54.3265 98.5096 54.4784L99.0599 53.6434ZM99.3231 54.9926C99.5593 55.1356 99.8668 55.0601 100.01 54.8239C100.153 54.5877 100.077 54.2803 99.8412 54.1372L99.3231 54.9926ZM101.453 55.0275C101.206 54.9042 100.906 55.0045 100.782 55.2516C100.659 55.4987 100.759 55.799 101.007 55.9222L101.453 55.0275ZM101.877 56.3322C102.129 56.444 102.424 56.3301 102.536 56.0776C102.648 55.8251 102.534 55.5298 102.282 55.4179L101.877 56.3322ZM103.988 56.0713C103.725 55.987 103.443 56.1317 103.359 56.3946C103.275 56.6576 103.419 56.9391 103.682 57.0235L103.988 56.0713ZM104.617 57.2919C104.884 57.3596 105.156 57.1974 105.224 56.9297C105.292 56.662 105.13 56.3901 104.862 56.3224L104.617 57.2919ZM106.638 56.6375C106.363 56.6106 106.118 56.8117 106.092 57.0865C106.065 57.3614 106.266 57.6059 106.541 57.6327L106.638 56.6375ZM107.524 57.6853C107.8 57.6876 108.026 57.4655 108.028 57.1894C108.03 56.9133 107.808 56.6876 107.532 56.6854L107.524 57.6853ZM109.299 56.5224C109.028 56.5767 108.853 56.8403 108.907 57.111C108.961 57.3818 109.225 57.5572 109.496 57.5028L109.299 56.5224ZM110.461 57.2516C110.724 57.1669 110.868 56.8852 110.783 56.6224C110.699 56.3595 110.417 56.2151 110.154 56.2998L110.461 57.2516ZM111.755 55.5705C111.518 55.7129 111.442 56.0202 111.585 56.2567C111.727 56.4933 112.034 56.5697 112.271 56.4272L111.755 55.5705ZM113.092 55.8692C113.312 55.702 113.355 55.3883 113.187 55.1686C113.02 54.9488 112.706 54.9062 112.487 55.0734L113.092 55.8692ZM113.792 53.8592C113.608 54.065 113.626 54.3811 113.831 54.5652C114.037 54.7493 114.353 54.7316 114.537 54.5258L113.792 53.8592ZM115.163 53.7661C115.33 53.5461 115.287 53.2325 115.067 53.0655C114.847 52.8986 114.533 52.9416 114.366 53.1616L115.163 53.7661ZM115.354 51.6535C115.218 51.8936 115.302 52.1988 115.542 52.3353C115.782 52.4717 116.087 52.3878 116.224 52.1477L115.354 51.6535ZM77.49 51.7915C77.6053 51.9352 77.7209 52.0756 77.8366 52.2128L78.601 51.5681C78.4906 51.4372 78.3802 51.303 78.2699 51.1655L77.49 51.7915ZM79.2969 53.7695C79.5643 54.0239 79.8323 54.2626 80.1005 54.4863L80.741 53.7183C80.4899 53.5089 80.2382 53.2847 79.9861 53.0449L79.2969 53.7695ZM81.8619 55.7452C82.1814 55.937 82.5004 56.1095 82.8185 56.2638L83.2549 55.364C82.9639 55.2229 82.6711 55.0646 82.3767 54.8879L81.8619 55.7452ZM84.8716 57.0225C85.233 57.1158 85.5914 57.188 85.9459 57.2408L86.0933 56.2517C85.7729 56.204 85.4489 56.1388 85.1217 56.0542L84.8716 57.0225ZM88.1319 57.336C88.5015 57.3141 88.864 57.2739 89.2187 57.2181L89.0632 56.2302C88.739 56.2813 88.4087 56.3179 88.0729 56.3377L88.1319 57.336ZM91.3278 56.69C91.6759 56.5708 92.0124 56.4397 92.3363 56.3004L91.9411 55.3818C91.6391 55.5117 91.3263 55.6335 91.0038 55.7439L91.3278 56.69ZM94.2552 55.3121C94.5794 55.1171 94.8813 54.9208 95.1588 54.7297L94.5916 53.9061C94.3297 54.0865 94.045 54.2716 93.7397 54.4552L94.2552 55.3121ZM96.8555 53.3992C96.9824 53.2852 97.0804 53.1928 97.1476 53.1281C97.1811 53.0957 97.207 53.0703 97.2248 53.0525C97.2338 53.0436 97.2407 53.0366 97.2457 53.0316C97.2481 53.0291 97.2501 53.0271 97.2515 53.0257C97.2522 53.0249 97.2528 53.0243 97.2533 53.0238C97.2535 53.0236 97.2537 53.0234 97.2539 53.0232C97.254 53.0231 97.2541 53.023 97.2542 53.023C97.2542 53.0229 97.2542 53.0229 97.2542 53.0229C97.2543 53.0229 97.2543 53.0228 97.2543 53.0228C97.2543 53.0228 97.2543 53.0228 96.8963 52.6738C96.5382 52.3248 96.5382 52.3248 96.5382 52.3248C96.5382 52.3248 96.5383 52.3248 96.5383 52.3247C96.5383 52.3247 96.5383 52.3247 96.5383 52.3247C96.5384 52.3246 96.5384 52.3246 96.5384 52.3246C96.5385 52.3245 96.5385 52.3245 96.5385 52.3246C96.5384 52.3246 96.5383 52.3248 96.538 52.3251C96.5374 52.3256 96.5363 52.3268 96.5347 52.3283C96.5316 52.3315 96.5264 52.3367 96.5193 52.3438C96.5051 52.3579 96.4831 52.3796 96.4535 52.4082C96.3943 52.4653 96.3049 52.5496 96.1873 52.6552L96.8555 53.3992ZM96.8963 52.6738C96.5705 53.0531 96.5705 53.0531 96.5705 53.0531C96.5705 53.0531 96.5706 53.0532 96.5706 53.0532C96.5706 53.0532 96.5706 53.0532 96.5706 53.0532C96.5707 53.0533 96.5708 53.0533 96.5708 53.0534C96.571 53.0535 96.5711 53.0537 96.5714 53.0538C96.5718 53.0542 96.5723 53.0546 96.5729 53.0552C96.5742 53.0563 96.576 53.0578 96.5783 53.0598C96.5829 53.0637 96.5894 53.0692 96.5978 53.0763C96.6147 53.0905 96.6392 53.1109 96.6711 53.1372C96.7348 53.1896 96.8281 53.2651 96.9484 53.3595L97.5654 52.5725C97.4516 52.4833 97.3645 52.4127 97.3065 52.365C97.2775 52.3411 97.2557 52.3229 97.2416 52.311C97.2345 52.3051 97.2293 52.3007 97.226 52.2979C97.2244 52.2965 97.2232 52.2955 97.2226 52.2949C97.2222 52.2947 97.222 52.2945 97.2219 52.2944C97.2219 52.2944 97.2219 52.2943 97.2219 52.2944C97.2219 52.2944 97.2219 52.2944 97.2219 52.2944C97.222 52.2944 97.222 52.2944 97.222 52.2944C97.222 52.2944 97.222 52.2945 97.222 52.2945C97.222 52.2945 97.222 52.2945 96.8963 52.6738ZM98.5096 54.4784C98.7609 54.644 99.0328 54.8168 99.3231 54.9926L99.8412 54.1372C99.5625 53.9684 99.3013 53.8025 99.0599 53.6434L98.5096 54.4784ZM101.007 55.9222C101.287 56.0624 101.578 56.1998 101.877 56.3322L102.282 55.4179C101.998 55.2921 101.721 55.1612 101.453 55.0275L101.007 55.9222ZM103.682 57.0235C103.989 57.1218 104.3 57.2119 104.617 57.2919L104.862 56.3224C104.567 56.2479 104.275 56.1637 103.988 56.0713L103.682 57.0235ZM106.541 57.6327C106.866 57.6645 107.194 57.6827 107.524 57.6853L107.532 56.6854C107.234 56.683 106.935 56.6665 106.638 56.6375L106.541 57.6327ZM109.496 57.5028C109.818 57.438 110.14 57.3549 110.461 57.2516L110.154 56.2998C109.871 56.3911 109.585 56.4648 109.299 56.5224L109.496 57.5028ZM112.271 56.4272C112.548 56.2601 112.822 56.0744 113.092 55.8692L112.487 55.0734C112.245 55.2569 112.001 55.4222 111.755 55.5705L112.271 56.4272ZM114.537 54.5258C114.75 54.288 114.959 54.0349 115.163 53.7661L114.366 53.1616C114.178 53.4097 113.986 53.642 113.792 53.8592L114.537 54.5258ZM116.224 52.1477C116.304 52.006 116.384 51.8611 116.462 51.713L115.579 51.2441C115.505 51.3838 115.43 51.5203 115.354 51.6535L116.224 52.1477Z" fill="#FDF7FF"/>
<path d="M94.5057 51.0303L96.8962 48.6398L99.1374 51.0303L96.8962 59.5468L94.5057 51.0303Z" fill="#FDF7FF" stroke="#FDF7FF" stroke-width="2" stroke-linecap="round" stroke-linejoin="round"/>
<circle cx="86.7363" cy="45.3528" r="6.27525" fill="#FDF7FF"/>
<circle cx="86.1386" cy="45.3527" r="3.88468" fill="#1D164E"/>
<circle cx="87.6327" cy="43.261" r="1.19529" fill="#FDF7FF"/>
<circle cx="107.015" cy="45.3528" r="6.27525" fill="#FDF7FF"/>
<circle cx="106.716" cy="45.3527" r="3.88468" fill="#1D164E"/>
<circle cx="108.21" cy="43.261" r="1.19529" fill="#FDF7FF"/>
<g filter="url(#filter1_i_233_14467)">
<path d="M133.217 76.4198C130.529 76.2518 129.185 78.5758 129.185 78.4078C129.185 76.9518 129.633 75.5238 128.737 75.4958C124.845 75.4118 125.909 90.2798 126.889 92.5198C127.505 93.9478 129.353 93.2478 129.689 92.4358C130.165 91.2038 130.193 89.1318 130.109 87.0038C131.257 87.0878 132.909 86.8358 134.309 85.8558C137.529 83.5038 137.417 76.6998 133.189 76.4198H133.217ZM129.997 83.1398C130.025 78.6318 133.945 77.9038 134.449 80.7598C134.841 83.1678 133.721 85.8838 130.053 85.7158C130.025 84.7918 129.997 83.9238 129.997 83.1398ZM137.936 81.3198C137.124 89.6358 147.652 90.2238 147.736 81.4598C147.736 74.7118 138.804 74.1238 137.936 81.3198ZM143.032 86.3598C140.036 85.4638 141.1 78.5758 143.284 78.3798C143.732 78.8838 142.976 81.6838 146.112 81.7118C146.364 84.5398 144.88 86.8918 143.032 86.3598ZM154.859 77.0638C154.971 72.6958 154.355 71.5198 154.187 71.2398C153.851 70.5958 153.095 70.5398 152.591 71.0718C152.451 71.2398 152.339 71.4358 152.255 71.6598C151.583 72.9478 151.079 75.7758 150.967 77.1198C149.875 77.1198 149.399 77.0358 148.979 77.2318C148.559 77.4838 148.531 78.1838 148.951 78.4078C149.287 78.6038 150.519 78.5758 150.771 78.5478V80.6198C150.771 82.8318 151.023 84.5398 151.611 85.8558C152.815 88.3198 156.483 88.0678 157.239 86.2198C157.351 85.9398 156.847 85.3798 156.007 85.7998C154.187 86.7238 154.971 80.6758 154.803 78.4078C155.279 78.2958 156.567 78.2118 157.183 77.9318C157.575 77.7638 157.687 77.0638 157.127 77.0638H154.859ZM160.287 72.0238C158.131 72.4998 158.663 75.6918 160.847 75.4958C162.807 75.1318 162.667 71.7158 160.287 72.0238ZM162.023 77.5958C161.659 76.8118 159.811 76.3358 159.419 77.2318C159.167 77.7638 158.159 84.8758 159.447 86.8638C160.147 87.9558 161.771 88.0118 162.219 86.7238C162.751 85.1278 162.723 78.9678 162.023 77.5958ZM164.268 81.3198C163.456 89.6358 173.984 90.2238 174.068 81.4598C174.068 74.7118 165.136 74.1238 164.268 81.3198ZM169.364 86.3598C166.368 85.4638 167.432 78.5758 169.616 78.3798C170.064 78.8838 169.308 81.6838 172.444 81.7118C172.696 84.5398 171.212 86.8918 169.364 86.3598ZM182.843 76.4478C180.463 76.7558 178.979 79.3318 179.035 80.5078C178.559 79.5838 178.755 77.5398 178.811 77.0918C178.923 76.3918 178.839 75.6358 178.027 75.6358C176.991 75.6638 176.207 77.0638 175.899 78.1558C175.003 81.5718 176.291 86.2758 177.243 87.1998C178.251 88.1798 179.791 87.7318 180.155 86.3598C180.267 85.9398 180.211 85.4918 180.099 85.0438L179.875 84.3438C178.979 80.1438 181.219 78.3238 182.283 78.1558C184.019 77.7918 184.747 79.9478 183.151 85.8278C182.535 87.9558 185.979 88.4878 186.595 86.0798C187.883 80.9838 187.099 75.8598 182.843 76.4478Z" fill="#C003F0"/>
</g>
<path d="M86.5132 76.729C86.2144 78.2231 86.8488 82.0319 87.559 83.4525C88.9037 86.1419 91.5294 86.8889 93.0872 86.8889C97.719 86.8889 98.6154 80.1655 94.5739 82.8548C91.3499 85.0002 88.6049 82.1078 89.9496 80.1655" stroke="#FDF7FF" stroke-linecap="round" stroke-linejoin="round"/>
<path d="M107.527 75.5337C107.826 77.0278 107.191 80.8366 106.481 82.2572C105.136 84.9466 102.511 85.6936 100.953 85.6936C96.3213 85.6936 95.4248 78.9701 99.4663 81.6595C102.69 83.8049 105.435 80.9125 104.091 78.9701" stroke="#FDF7FF" stroke-linecap="round" stroke-linejoin="round"/>
<path d="M113.229 92.621C113.234 93.0671 110.421 93.3187 107.285 93.356C104.15 93.3932 100.796 93.1169 100.791 92.6707C100.786 92.2246 104.138 91.7777 107.274 91.7404C110.41 91.7032 113.224 92.1749 113.229 92.621Z" fill="#7F009F"/>
<path d="M102.574 102.726C101.467 96.823 99.9394 92.9518 100.781 93.0149C108.55 93.5974 110.791 92.417 114.975 93.0149C116.706 93.2623 118.36 94.1331 119.756 96.7499C120.951 98.9911 120.652 102.428 118.561 104.669C116.868 106.483 115.157 107.994 112.285 108.404C106.757 109.194 103.078 105.416 102.574 102.726Z" fill="#C003F0" stroke="#7F009F" stroke-width="2" stroke-linecap="round" stroke-linejoin="round"/>
<path fill-rule="evenodd" clip-rule="evenodd" d="M90.4634 77.1352C89.6869 77.4406 89.5297 78.1575 89.5099 78.4357C89.4909 78.7025 89.5482 78.9102 89.5663 78.9744C89.6119 79.136 89.6769 79.2683 89.7045 79.3236C89.7736 79.462 89.8656 79.617 89.9541 79.7603C90.1397 80.0607 90.4112 80.4717 90.7347 80.9516C91.0185 81.3726 91.3543 81.8643 91.7249 82.4052C93.0042 82.7535 94.0164 82.0698 94.7613 81.5667C94.7673 81.5626 94.7732 81.5586 94.7792 81.5546C94.7377 81.4941 94.6966 81.4341 94.6557 81.3746L94.6554 81.3741C94.1053 80.5721 93.6159 79.8586 93.2223 79.2747L93.1796 79.2114C94.6795 78.4679 96.0725 77.534 97.3045 76.3495C97.4298 76.5673 97.5649 76.8031 97.7087 77.054L97.7096 77.0556C98.2136 77.9349 98.8237 78.9995 99.4884 80.127C99.6121 80.3368 99.7383 80.5498 99.8666 80.7653C101.345 81.5081 102.538 81.4242 103.305 80.654C102.884 79.969 102.471 79.2785 102.073 78.6035C101.418 77.4933 100.823 76.4544 100.321 75.5782L100.321 75.5782C100.137 75.2584 99.9666 74.9603 99.8098 74.6883C99.5215 74.1881 99.2732 73.763 99.0885 73.4666C99.0008 73.3258 98.903 73.1744 98.8102 73.0517C98.7754 73.0056 98.6803 72.8805 98.5456 72.7618L98.5449 72.7612C98.4954 72.7176 98.3043 72.5492 98.0059 72.4505C97.8389 72.3953 97.5561 72.3344 97.2161 72.4067C96.844 72.4857 96.5442 72.6946 96.3429 72.951C94.8278 74.8816 92.8353 76.2021 90.4634 77.1352ZM106 84.7528C105.371 85.5103 104.262 86.1188 103.396 86.2683C104.11 87.269 104.815 88.1669 105.473 88.8655C107.431 90.9445 109.88 91.8652 111.949 92.643C112.106 92.7018 112.26 92.7598 112.412 92.8174C114.658 93.6703 116.439 94.4592 117.718 96.2485C118.891 97.8888 119.34 99.6386 119.072 101.277C118.805 102.906 117.795 104.623 115.669 106.143C111.808 108.903 107.082 108.321 104.968 105.363C103.634 103.498 103.151 101.155 102.827 98.6706C102.774 98.2656 102.724 97.8449 102.674 97.4219C102.578 96.6153 102.481 95.8001 102.362 95.0684C102.177 93.9377 101.906 92.7707 101.377 91.7826C100.439 90.0329 98.893 87.6373 97.3517 85.3371C97.2725 85.9826 96.335 87.0278 95.1881 87.4993C96.5918 89.6064 97.923 91.6894 98.7323 93.1996C99.021 93.7383 99.2295 94.5049 99.4009 95.5526C99.5109 96.2258 99.5931 96.9195 99.6825 97.6753L99.6825 97.6753L99.6825 97.6754C99.7343 98.1129 99.7886 98.5714 99.8522 99.0588C100.182 101.587 100.727 104.59 102.527 107.108C105.862 111.773 112.595 112.029 117.414 108.583C120.062 106.69 121.613 104.32 122.032 101.762C122.45 99.2123 121.711 96.6751 120.159 94.5039C118.304 91.91 115.722 90.8656 113.477 90.0128L113.134 89.8831C110.953 89.0573 109.122 88.3643 107.657 86.8088C107.145 86.2655 106.585 85.56 106 84.7528Z" fill="#F0C000"/>
<path d="M89 77C87.7183 77.0419 87 74 87 74L95 68.5C95 68.5 97.5536 70.5541 97.0287 71.8553C96.3781 73.468 96.6468 76.3064 97.5 77.5C98.3532 78.6936 94.8532 81.1936 94 80C93.1468 78.8064 90.442 76.953 89 77Z" fill="#7F009F" stroke="#7F009F" stroke-linecap="round" stroke-linejoin="round"/>
<path fill-rule="evenodd" clip-rule="evenodd" d="M89.4579 77.4758C90.1244 77.3153 90.5483 77.2133 91.0483 77.7134C91.9233 78.5885 97 75.1098 97 73.9999C97 73.8906 97.0036 73.7806 97.0108 73.6701C97.0142 73.6664 97.0177 73.6626 97.0211 73.6589C97.0178 73.66 97.0146 73.6611 97.0113 73.6622C97.0596 72.9379 97.266 72.193 97.6725 71.494C97.7488 71.4895 97.8249 71.4874 97.9005 71.4879C98.2179 71.4901 98.6009 71.5371 98.9394 71.7388C99.3418 71.9785 99.5806 72.3781 99.6098 72.8315C99.6342 73.2122 99.5071 73.5514 99.3876 73.7924C99.2601 74.0496 99.0863 74.3032 98.8969 74.5426C98.1537 75.482 96.8388 76.6126 95.5012 77.5791C94.1647 78.545 92.6771 79.44 91.5462 79.8446C91.2576 79.9478 90.9592 80.0314 90.671 80.0683C90.3993 80.1031 90.034 80.1105 89.6795 79.9583C89.2625 79.7793 88.9705 79.4258 88.8693 78.9799C88.7828 78.5986 88.8503 78.2201 88.9446 77.9101C88.9802 77.7932 89.0255 77.6775 89.0784 77.5636C89.2137 77.5345 89.3396 77.5042 89.4579 77.4758ZM97.6222 72.8419C97.6223 72.8418 97.622 72.8432 97.621 72.846C97.6217 72.8433 97.6222 72.8419 97.6222 72.8419ZM90.3532 78.089C90.3533 78.0889 90.3548 78.0889 90.3577 78.0892C90.3546 78.0891 90.3532 78.089 90.3532 78.089Z" fill="#F0C000"/>
<path d="M95.1297 68.1235C95.2508 68.3031 93.6517 69.5935 91.2516 71.2124C88.8515 72.8313 86.8076 73.9981 86.6865 73.8185C86.5654 73.6389 88.4128 72.1809 90.8129 70.562C93.213 68.9432 95.0085 67.9439 95.1297 68.1235Z" fill="#F0C000"/>
<g filter="url(#filter2_f_233_14467)">
<circle cx="101.788" cy="87.8963" r="1.06704" transform="rotate(14.9396 101.788 87.8963)" fill="#F2BFFF"/>
</g>
<g filter="url(#filter3_f_233_14467)">
<circle cx="105.944" cy="90.8569" r="0.800282" transform="rotate(14.9396 105.944 90.8569)" fill="#F2BFFF"/>
</g>
<g filter="url(#filter4_f_233_14467)">
<circle cx="98.7721" cy="79.8005" r="0.800282" transform="rotate(14.9396 98.7721 79.8005)" fill="#F2BFFF"/>
</g>
<defs>
<filter id="filter0_i_233_14467" x="14.8416" y="68.2439" width="53.0972" height="30.6439" filterUnits="userSpaceOnUse" color-interpolation-filters="sRGB">
<feFlood flood-opacity="0" result="BackgroundImageFix"/>
<feBlend mode="normal" in="SourceGraphic" in2="BackgroundImageFix" result="shape"/>
<feColorMatrix in="SourceAlpha" type="matrix" values="0 0 0 0 0 0 0 0 0 0 0 0 0 0 0 0 0 0 127 0" result="hardAlpha"/>
<feOffset dy="2"/>
<feGaussianBlur stdDeviation="3"/>
<feComposite in2="hardAlpha" operator="arithmetic" k2="-1" k3="1"/>
<feColorMatrix type="matrix" values="0 0 0 0 0.94 0 0 0 0 0.752 0 0 0 0 1.19209e-07 0 0 0 0.5 0"/>
<feBlend mode="normal" in2="shape" result="effect1_innerShadow_233_14467"/>
</filter>
<filter id="filter1_i_233_14467" x="124.845" y="70.5398" width="63.0376" height="25.4081" filterUnits="userSpaceOnUse" color-interpolation-filters="sRGB">
<feFlood flood-opacity="0" result="BackgroundImageFix"/>
<feBlend mode="normal" in="SourceGraphic" in2="BackgroundImageFix" result="shape"/>
<feColorMatrix in="SourceAlpha" type="matrix" values="0 0 0 0 0 0 0 0 0 0 0 0 0 0 0 0 0 0 127 0" result="hardAlpha"/>
<feOffset dy="2"/>
<feGaussianBlur stdDeviation="3"/>
<feComposite in2="hardAlpha" operator="arithmetic" k2="-1" k3="1"/>
<feColorMatrix type="matrix" values="0 0 0 0 0.94 0 0 0 0 0.752 0 0 0 0 1.19209e-07 0 0 0 0.5 0"/>
<feBlend mode="normal" in2="shape" result="effect1_innerShadow_233_14467"/>
</filter>
<filter id="filter2_f_233_14467" x="96.7206" y="82.829" width="10.1346" height="10.1346" filterUnits="userSpaceOnUse" color-interpolation-filters="sRGB">
<feFlood flood-opacity="0" result="BackgroundImageFix"/>
<feBlend mode="normal" in="SourceGraphic" in2="BackgroundImageFix" result="shape"/>
<feGaussianBlur stdDeviation="2" result="effect1_foregroundBlur_233_14467"/>
</filter>
<filter id="filter3_f_233_14467" x="101.143" y="86.0564" width="9.60095" height="9.60095" filterUnits="userSpaceOnUse" color-interpolation-filters="sRGB">
<feFlood flood-opacity="0" result="BackgroundImageFix"/>
<feBlend mode="normal" in="SourceGraphic" in2="BackgroundImageFix" result="shape"/>
<feGaussianBlur stdDeviation="2" result="effect1_foregroundBlur_233_14467"/>
</filter>
<filter id="filter4_f_233_14467" x="93.9716" y="75" width="9.60095" height="9.60095" filterUnits="userSpaceOnUse" color-interpolation-filters="sRGB">
<feFlood flood-opacity="0" result="BackgroundImageFix"/>
<feBlend mode="normal" in="SourceGraphic" in2="BackgroundImageFix" result="shape"/>
<feGaussianBlur stdDeviation="2" result="effect1_foregroundBlur_233_14467"/>
</filter>
</defs>
</svg>
