<svg width="125" height="151" viewBox="0 0 125 151" fill="none" xmlns="http://www.w3.org/2000/svg">
<path d="M50.8514 99.7029V139.914H71.7878V99.7029H50.8514Z" stroke="#F0C000" stroke-linejoin="round"/>
<path d="M53.1777 110.669V104.023H60.1565V110.669H53.1777Z" stroke="#F0C000" stroke-linejoin="round"/>
<path d="M62.1504 110.669V104.023H69.1292V110.669H62.1504Z" stroke="#F0C000" stroke-linejoin="round"/>
<path d="M62.4827 94.718V84.0837H71.7877V94.718H62.4827Z" stroke="#F0C000" stroke-linejoin="round"/>
<path d="M50.519 94.718V84.0837H59.8241V94.718H50.519Z" stroke="#F0C000" stroke-linejoin="round"/>
<path d="M53.1777 119.31V112.663H60.1565V119.31H53.1777Z" stroke="#F0C000" stroke-linejoin="round"/>
<path d="M62.1504 119.31V112.663H69.1292V119.31H62.1504Z" stroke="#F0C000" stroke-linejoin="round"/>
<path d="M50.519 34.2353V53.51H71.7877V34.2353H50.519Z" stroke="#F0C000" stroke-linejoin="round"/>
<path d="M53.1777 42.8757V36.2292H60.1565V42.8757H53.1777Z" stroke="#F0C000" stroke-linejoin="round"/>
<path d="M62.1504 42.8757V36.2292H69.1292V42.8757H62.1504Z" stroke="#F0C000" stroke-linejoin="round"/>
<path d="M53.1777 51.5161V44.8696H60.1565V51.5161H53.1777Z" stroke="#F0C000" stroke-linejoin="round"/>
<path d="M62.1504 51.5161V44.8696H69.1292V51.5161H62.1504Z" stroke="#F0C000" stroke-linejoin="round"/>
<path d="M2 27.3396C2 24.681 3.66161 22.6871 5.32323 21.0255C22.2717 20.0285 31.5767 20.0285 48.8575 21.0255C50.5191 23.0194 51.1837 24.681 51.1837 27.3396C31.909 26.3426 21.2747 26.3426 2 27.3396Z" stroke="#F0C000" stroke-linejoin="round"/>
<path d="M4.70302 76.804C3.04138 75.4747 2.70906 72.1515 4.70301 70.9053C21.6514 69.8252 30.9565 69.9083 48.2373 70.9053C49.8989 72.4838 49.8989 74.8101 48.2373 76.804C28.5859 77.4371 23.9333 77.4372 4.70302 76.804Z" stroke="#F0C000" stroke-linejoin="round"/>
<path d="M5.94437 131.762C4.38902 131.268 4.07796 130.032 5.94437 129.569C21.8087 129.168 30.5186 129.199 46.694 129.569C48.2493 130.156 48.2493 131.021 46.694 131.762C28.2996 131.997 23.9447 131.997 5.94437 131.762Z" stroke="#F0C000" stroke-linejoin="round"/>
<path d="M76.3968 131.762C74.8414 131.268 74.5304 130.032 76.3968 129.569C92.2611 129.168 100.971 129.199 117.146 129.569C118.702 130.156 118.702 131.021 117.146 131.762C98.752 131.997 94.3971 131.997 76.3968 131.762Z" stroke="#F0C000" stroke-linejoin="round"/>
<path d="M11.3051 142.313V133.267C11.6374 133.6 13.299 133.932 13.9637 133.6V142.313C13.9637 143.188 15.9576 144.064 15.9576 145.231C14.6283 145.563 12.3021 145.231 12.3021 145.231C12.3021 145.231 9.9758 144.566 9.31116 143.902C9.31116 143.569 11.3051 142.905 11.3051 142.313Z" stroke="#F0C000" stroke-linejoin="round"/>
<path d="M41.8787 142.313V133.267C41.5464 133.6 39.8848 133.932 39.2202 133.6V142.313C39.2202 143.188 37.2262 144.064 37.2262 145.231C38.5555 145.563 40.8818 145.231 40.8818 145.231C40.8818 145.231 43.208 144.566 43.8727 143.902C43.8727 143.569 41.8787 142.905 41.8787 142.313Z" stroke="#F0C000" stroke-linejoin="round"/>
<path d="M20.61 142.816V133.267C20.61 133.267 21.4202 133.6 21.9393 133.6C22.4584 133.6 23.2686 133.267 23.2686 133.267V142.816C23.2686 143.74 25.2625 144.356 25.2625 145.588C25.2625 145.588 23.2436 145.896 21.9393 145.896C20.635 145.896 18.6161 145.588 18.6161 145.588C18.6161 144.356 20.61 143.74 20.61 142.816Z" stroke="#F0C000" stroke-linejoin="round"/>
<path d="M29.9151 142.816V133.267C29.9151 133.267 30.7252 133.6 31.2444 133.6C31.7635 133.6 32.5737 133.267 32.5737 133.267V142.816C32.5737 143.74 34.5676 144.356 34.5676 145.588C34.5676 145.588 32.5486 145.896 31.2444 145.896C29.9401 145.896 27.9211 145.588 27.9211 145.588C27.9211 144.356 29.9151 143.74 29.9151 142.816Z" stroke="#F0C000" stroke-linejoin="round"/>
<path d="M81.7575 142.313V133.267C82.0898 133.6 83.7514 133.932 84.4161 133.6V142.313C84.4161 143.188 86.41 144.064 86.41 145.231C85.0807 145.563 82.7545 145.231 82.7545 145.231C82.7545 145.231 80.4282 144.566 79.7635 143.902C79.7635 143.569 81.7575 142.905 81.7575 142.313Z" stroke="#F0C000" stroke-linejoin="round"/>
<path d="M112.331 142.313V133.267C111.999 133.6 110.337 133.932 109.673 133.6V142.313C109.673 143.188 107.679 144.064 107.679 145.231C109.008 145.563 111.334 145.231 111.334 145.231C111.334 145.231 113.66 144.566 114.325 143.902C114.325 143.569 112.331 142.905 112.331 142.313Z" stroke="#F0C000" stroke-linejoin="round"/>
<path d="M91.0624 142.816V133.267C91.0624 133.267 91.8726 133.6 92.3917 133.6C92.9108 133.6 93.721 133.267 93.721 133.267V142.816C93.721 143.74 95.7149 144.356 95.7149 145.588C95.7149 145.588 93.696 145.896 92.3917 145.896C91.0874 145.896 89.0685 145.588 89.0685 145.588C89.0685 144.356 91.0624 143.74 91.0624 142.816Z" stroke="#F0C000" stroke-linejoin="round"/>
<path d="M100.367 142.816V133.267C100.367 133.267 101.178 133.6 101.697 133.6C102.216 133.6 103.026 133.267 103.026 133.267V142.816C103.026 143.74 105.02 144.356 105.02 145.588C105.02 145.588 103.001 145.896 101.697 145.896C100.392 145.896 98.3735 145.588 98.3735 145.588C98.3735 144.356 100.367 143.74 100.367 142.816Z" stroke="#F0C000" stroke-linejoin="round"/>
<path d="M7.98181 60.6728V33.3278C7.98181 32.3254 8.72387 31.4778 9.71749 31.3453L15.6872 30.5493C16.8861 30.3895 17.9515 31.3222 17.9515 32.5318V61.2697C17.9515 62.453 16.9299 63.3775 15.7525 63.2598L9.7828 62.6628C8.7604 62.5606 7.98181 61.7003 7.98181 60.6728Z" stroke="#F0C000"/>
<path d="M44.5372 60.6728V33.3278C44.5372 32.3254 43.7952 31.4778 42.8016 31.3453L36.8319 30.5493C35.6329 30.3895 34.5676 31.3222 34.5676 32.5318V61.2697C34.5676 62.453 35.5892 63.3775 36.7666 63.2598L42.7362 62.6628C43.7586 62.5606 44.5372 61.7003 44.5372 60.6728Z" stroke="#F0C000"/>
<path d="M21.9393 61.812V32.2474C21.9393 31.1429 22.8348 30.2474 23.9393 30.2474H29.2444C30.3489 30.2474 31.2444 31.1429 31.2444 32.2474V61.812C31.2444 62.9166 30.3489 63.812 29.2444 63.812H23.9393C22.8348 63.812 21.9393 62.9166 21.9393 61.812Z" stroke="#F0C000"/>
<path d="M23.2686 45.8636V32.5767C23.2686 32.0244 23.7163 31.5767 24.2686 31.5767H28.915C29.4673 31.5767 29.915 32.0244 29.915 32.5767V45.8636C29.915 46.4158 29.4673 46.8636 28.915 46.8636H24.2686C23.7163 46.8636 23.2686 46.4158 23.2686 45.8636Z" stroke="#F0C000"/>
<path d="M23.2686 61.1504V49.1928C23.2686 48.6406 23.7163 48.1928 24.2686 48.1928H28.915C29.4673 48.1928 29.915 48.6406 29.915 49.1928V61.1504C29.915 61.7027 29.4673 62.1504 28.915 62.1504H24.2686C23.7163 62.1504 23.2686 61.7027 23.2686 61.1504Z" stroke="#F0C000"/>
<path d="M77.7695 60.6728V33.3278C77.7695 32.3254 78.5116 31.4778 79.5052 31.3453L85.4749 30.5493C86.6739 30.3895 87.7392 31.3222 87.7392 32.5318V61.2697C87.7392 62.453 86.7176 63.3775 85.5402 63.2598L79.5705 62.6628C78.5481 62.5606 77.7695 61.7003 77.7695 60.6728Z" stroke="#F0C000"/>
<path d="M114.325 60.6728V33.3278C114.325 32.3254 113.583 31.4778 112.589 31.3453L106.62 30.5493C105.421 30.3895 104.355 31.3222 104.355 32.5318V61.2697C104.355 62.453 105.377 63.3775 106.554 63.2598L112.524 62.6628C113.546 62.5606 114.325 61.7003 114.325 60.6728Z" stroke="#F0C000"/>
<path d="M91.7271 61.812V32.2474C91.7271 31.1429 92.6225 30.2474 93.7271 30.2474H99.0321C100.137 30.2474 101.032 31.1429 101.032 32.2474V61.812C101.032 62.9166 100.137 63.812 99.0321 63.812H93.7271C92.6225 63.812 91.7271 62.9166 91.7271 61.812Z" stroke="#F0C000"/>
<path d="M93.0564 45.8636V32.5767C93.0564 32.0244 93.5041 31.5767 94.0564 31.5767H98.7028C99.2551 31.5767 99.7028 32.0244 99.7028 32.5767V45.8636C99.7028 46.4158 99.2551 46.8636 98.7028 46.8636H94.0564C93.5041 46.8636 93.0564 46.4158 93.0564 45.8636Z" stroke="#F0C000"/>
<path d="M93.0564 61.1504V49.1928C93.0564 48.6406 93.5041 48.1928 94.0564 48.1928H98.7028C99.2551 48.1928 99.7028 48.6406 99.7028 49.1928V61.1504C99.7028 61.7027 99.2551 62.1504 98.7028 62.1504H94.0564C93.5041 62.1504 93.0564 61.7027 93.0564 61.1504Z" stroke="#F0C000"/>
<path d="M7.98181 122.987V85.0587C7.98181 84.1053 8.65473 83.2845 9.58958 83.0975L15.5593 81.9036C16.7968 81.656 17.9515 82.6026 17.9515 83.8647V124.181C17.9515 125.443 16.7968 126.39 15.5593 126.143L9.58958 124.949C8.65473 124.762 7.98181 123.941 7.98181 122.987Z" stroke="#F0C000"/>
<path d="M45.2019 122.987V85.0587C45.2019 84.1053 44.529 83.2845 43.5941 83.0975L37.6245 81.9036C36.3869 81.656 35.2322 82.6026 35.2322 83.8647V124.181C35.2322 125.443 36.3869 126.39 37.6245 126.143L43.5941 124.949C44.529 124.762 45.2019 123.941 45.2019 122.987Z" stroke="#F0C000"/>
<path d="M21.9393 125.286V83.4251C21.9393 82.3205 22.8348 81.4251 23.9393 81.4251H29.2444C30.3489 81.4251 31.2444 82.3205 31.2444 83.4251V125.286C31.2444 126.39 30.3489 127.286 29.2444 127.286H23.9393C22.8348 127.286 21.9393 126.39 21.9393 125.286Z" stroke="#F0C000"/>
<path d="M23.2686 95.0473V84.419C23.2686 83.8668 23.7163 83.419 24.2686 83.419H28.915C29.4673 83.419 29.915 83.8668 29.915 84.419V95.0473C29.915 95.5996 29.4673 96.0473 28.915 96.0473H24.2686C23.7163 96.0473 23.2686 95.5996 23.2686 95.0473Z" stroke="#F0C000"/>
<path d="M23.2686 109.669V99.0412C23.2686 98.4889 23.7163 98.0412 24.2686 98.0412H28.915C29.4673 98.0412 29.915 98.4889 29.915 99.0412V109.669C29.915 110.222 29.4673 110.669 28.915 110.669H24.2686C23.7163 110.669 23.2686 110.222 23.2686 109.669Z" stroke="#F0C000"/>
<path d="M23.2686 124.292V114.328C23.2686 113.776 23.7163 113.328 24.2686 113.328H28.915C29.4673 113.328 29.915 113.776 29.915 114.328V124.292C29.915 124.844 29.4673 125.292 28.915 125.292H24.2686C23.7163 125.292 23.2686 124.844 23.2686 124.292Z" stroke="#F0C000"/>
<path d="M77.7695 122.987V85.0587C77.7695 84.1053 78.4425 83.2845 79.3773 83.0975L85.347 81.9036C86.5846 81.656 87.7392 82.6026 87.7392 83.8647V124.181C87.7392 125.443 86.5846 126.39 85.347 126.143L79.3773 124.949C78.4425 124.762 77.7695 123.941 77.7695 122.987Z" stroke="#F0C000"/>
<path d="M114.99 122.987V85.0587C114.99 84.1053 114.317 83.2845 113.382 83.0975L107.412 81.9036C106.175 81.656 105.02 82.6026 105.02 83.8647V124.181C105.02 125.443 106.175 126.39 107.412 126.143L113.382 124.949C114.317 124.762 114.99 123.941 114.99 122.987Z" stroke="#F0C000"/>
<path d="M91.7271 125.286V83.4251C91.7271 82.3205 92.6225 81.4251 93.7271 81.4251H99.0321C100.137 81.4251 101.032 82.3205 101.032 83.4251V125.286C101.032 126.39 100.137 127.286 99.0321 127.286H93.7271C92.6225 127.286 91.7271 126.39 91.7271 125.286Z" stroke="#F0C000"/>
<path d="M93.0564 95.0473V84.419C93.0564 83.8668 93.5041 83.419 94.0564 83.419H98.7028C99.2551 83.419 99.7028 83.8668 99.7028 84.419V95.0473C99.7028 95.5996 99.2551 96.0473 98.7028 96.0473H94.0564C93.5041 96.0473 93.0564 95.5996 93.0564 95.0473Z" stroke="#F0C000"/>
<path d="M93.0564 109.669V99.0412C93.0564 98.4889 93.5041 98.0412 94.0564 98.0412H98.7028C99.2551 98.0412 99.7028 98.4889 99.7028 99.0412V109.669C99.7028 110.222 99.2551 110.669 98.7028 110.669H94.0564C93.5041 110.669 93.0564 110.222 93.0564 109.669Z" stroke="#F0C000"/>
<path d="M93.0564 124.292V114.328C93.0564 113.776 93.5041 113.328 94.0564 113.328H98.7028C99.2551 113.328 99.7028 113.776 99.7028 114.328V124.292C99.7028 124.844 99.2551 125.292 98.7028 125.292H94.0564C93.5041 125.292 93.0564 124.844 93.0564 124.292Z" stroke="#F0C000"/>
<path d="M75.1554 76.804C73.4938 75.4747 73.1615 72.1515 75.1554 70.9053C92.1038 69.8252 101.409 69.9083 118.69 70.9053C120.351 72.4838 120.351 74.8101 118.69 76.804C99.0383 77.4371 94.3857 77.4372 75.1554 76.804Z" stroke="#F0C000" stroke-linejoin="round"/>
<path d="M73.1171 27.3396C73.1171 24.681 74.7787 22.6871 76.4403 21.0255C93.3887 20.0285 102.694 20.0285 119.975 21.0255C121.636 23.0194 122.301 24.681 122.301 27.3396C103.026 26.3426 92.3918 26.3426 73.1171 27.3396Z" stroke="#F0C000" stroke-linejoin="round"/>
<path d="M2 143.569V9.64342H50.1868L62.4827 2L73.4494 9.64342H122.633V143.569C116.319 148.222 90.0655 152.21 73.4494 143.569H50.1868C40.2171 149.551 17.2868 149.551 2 143.569Z" stroke="#F0C000" stroke-width="4" stroke-linejoin="round"/>
</svg>
