<svg width="42" height="44" viewBox="0 0 42 44" fill="none" xmlns="http://www.w3.org/2000/svg">
<path d="M1.03844 27.2972C0.552302 20.4426 4.67134 10.2225 13.7535 10.2225C15.923 9.00322 19.2028 8.78362 21.0192 10.2225C19.8083 9.00375 19.4543 9.45274 19.2028 7.78396C19.2028 5.34449 20.4138 3.51506 21.6247 2.29544C24.6521 -0.753201 27.6795 2.29595 27.6795 4.12527C27.074 5.95494 25.8631 7.17432 24.0466 8.39394C23.304 8.89259 22.9038 9.22783 22.2078 9.62439C23.8075 9.05492 25.6316 9.2543 27.074 10.2225C36.7617 9.00322 41 19.8286 41 27.2972C41 35.1958 34.9452 43.1525 27.6795 42.4102C25.8631 43.1525 23.4412 42.7747 21.0192 42.5424C18.5973 43.1525 16.1754 43.1525 14.6699 42.5424C6.48777 42.4102 2.02674 36.2555 1.03844 27.2972Z" fill="#F0C000" fill-opacity="0.9"/>
<path d="M21.0192 10.2225C19.2028 8.78362 15.923 9.00322 13.7535 10.2225M21.0192 10.2225C22.8357 9.00322 25.2576 9.00322 27.074 10.2225M21.0192 10.2225C19.8083 9.00375 19.4543 9.45274 19.2028 7.78396C19.2028 5.34449 20.4138 3.51506 21.6247 2.29544C24.6521 -0.753202 27.6795 2.29595 27.6795 4.12527C27.074 5.95494 25.8631 7.17432 24.0466 8.39394C22.9673 9.11867 22.6114 9.49822 21.0192 10.2225ZM13.7535 10.2225C4.67134 10.2225 0.552302 20.4426 1.03844 27.2972C2.02674 36.2555 6.48777 42.4102 14.6699 42.5424M13.7535 10.2225C11.0791 12.6621 7.69873 16.931 8.30421 23.6389M27.074 10.2225C36.7617 9.00322 41 19.8286 41 27.2972C41 35.1958 34.9452 43.1525 27.6795 42.4102M27.074 10.2225C30.1014 13.0216 33.7343 18.1506 32.5233 23.6389M14.6699 42.5424C16.1754 43.1525 18.5973 43.1525 21.0192 42.5424C23.4412 42.7747 25.8631 43.1525 27.6795 42.4102M14.6699 42.5424C13.148 41.3231 11.3316 38.2741 10.7261 35.835M27.6795 42.4102C29.4959 40.7133 30.7069 37.6645 31.3124 35.835" stroke="url(#paint0_linear_218_14051)" stroke-width="2" stroke-linecap="round" stroke-linejoin="round"/>
<defs>
<linearGradient id="paint0_linear_218_14051" x1="-1.5" y1="2.5" x2="24" y2="32.5" gradientUnits="userSpaceOnUse">
<stop stop-color="#392D63"/>
<stop offset="1" stop-color="#221C50"/>
</linearGradient>
</defs>
</svg>
