<svg width="38" height="44" viewBox="0 0 38 44" fill="none" xmlns="http://www.w3.org/2000/svg">
<path d="M11.916 29.9102C7.11719 23.8457 7.13477 20.9805 7.13477 8.62305C7.13477 6.30273 7.22266 5.88086 9.91211 5.63477V4.10547H0.912109V5.63477C3.35547 5.95117 3.46094 6.30273 3.46094 9.02734C3.46094 23.0195 5.46484 27.6602 11.916 32.4062C15.4316 29.4883 17.5938 26.4648 19 22.334C20.3359 26.4473 22.6562 29.4707 26.0488 32.4062C32.5 27.6602 34.4863 23.0195 34.4863 9.02734C34.4863 6.30273 34.5391 5.81055 37.0527 5.63477V4.10547H28.0703V5.63477C30.7246 5.88086 30.8125 6.30273 30.8125 8.62305C30.8125 20.9805 30.8301 23.8457 26.0488 29.9102C21.1621 24.2148 20.8281 21.8066 20.8281 9.20312C20.8281 6.30273 21.0566 5.95117 23.5879 5.63477V4.10547H14.3945V5.63477C16.9434 5.88086 17.1191 6.30273 17.1191 9.20312C17.1191 21.1035 16.9785 23.9688 11.916 29.9102Z" fill="#C003F0"/>
<path d="M18.3926 31.6094C18.8848 31.7031 19.5469 31.75 20.3789 31.75C21.2227 31.75 21.9961 31.5742 22.6992 31.2227C23.4141 30.8711 23.9941 30.3789 24.4395 29.7461C25.2949 28.5273 25.7227 26.8047 25.7227 24.5781C25.7227 22.4336 25.4473 20.8398 24.8965 19.7969C24.123 18.3555 22.6289 17.6348 20.4141 17.6348C17.6953 17.6348 16.2012 18.2969 15.9316 19.6211C15.8496 20.0312 15.8086 20.4766 15.8086 20.957V38.3594C15.8086 39.0391 15.8438 39.5664 15.9141 39.9414C15.9844 40.3164 16.1367 40.6035 16.3711 40.8027C16.6055 41.002 16.9453 41.1426 17.3906 41.2246C17.8477 41.2949 18.457 41.3711 19.2188 41.4531L20.1855 41.5586V43H9.2168V41.5586C9.27539 41.5352 9.36328 41.5234 9.48047 41.5234C9.59766 41.5117 9.80273 41.4883 10.0957 41.4531C10.4004 41.4062 10.7109 41.3418 11.0273 41.2598C11.3438 41.1777 11.5957 41.0312 11.7832 40.8203C12.0996 40.457 12.2578 39.6367 12.2578 38.3594V20.5527C12.2578 19.416 12.123 18.7129 11.8535 18.4434C11.5957 18.1738 11.2617 17.9863 10.8516 17.8809C10.4531 17.7754 9.9082 17.6934 9.2168 17.6348V16.1055H13.7871C14.9238 16.1055 16.0605 16.041 17.1973 15.9121C18.3457 15.7832 19.6582 15.7188 21.1348 15.7188C22.623 15.7188 23.9473 15.959 25.1074 16.4395C26.2676 16.9082 27.1875 17.541 27.8672 18.3379C29.0859 19.7676 29.6953 21.7773 29.6953 24.3672C29.6953 26.9922 29.0039 29.125 27.6211 30.7656C26.0273 32.6523 23.6777 33.5957 20.5723 33.5957C19.8574 33.5957 19.0312 33.4785 18.0938 33.2441L18.3926 31.6094Z" fill="#08FFF0"/>
</svg>
